<svg xmlns="http://www.w3.org/2000/svg" width="31.001" height="25.217" viewBox="0 0 31.001 25.217">
  <path id="&#x41E;&#x431;&#x44A;&#x435;&#x434;&#x438;&#x43D;&#x435;&#x43D;&#x438;&#x435;_194" data-name="&#x41E;&#x431;&#x44A;&#x435;&#x434;&#x438;&#x43D;&#x435;&#x43D;&#x438;&#x435; 194" d="M9756.959-710.836a4.867,4.867,0,0,1-4.814-4.054l-2.2-7.577a.785.785,0,0,1,.537-.977.787.787,0,0,1,.979.537l2.214,7.621a.633.633,0,0,1,.02.093,3.3,3.3,0,0,0,3.266,2.775h10.085a3.292,3.292,0,0,0,3.261-2.775c0-.032.015-.061.022-.093l2.213-7.621a.79.79,0,0,1,.979-.537.787.787,0,0,1,.537.977l-2.2,7.577a4.865,4.865,0,0,1-4.812,4.054Zm9.018-3.136a.787.787,0,0,1-.579-.954l1.607-6.6a.788.788,0,0,1,.954-.579.79.79,0,0,1,.579.954l-1.607,6.6a.792.792,0,0,1-.768.6A.817.817,0,0,1,9765.977-713.972Zm-8.907-.581-1.607-6.6a.79.79,0,0,1,.582-.954.786.786,0,0,1,.952.579l1.607,6.6a.792.792,0,0,1-.579.954.849.849,0,0,1-.189.022A.791.791,0,0,1,9757.069-714.553Zm4.142-1.151v-5.634a.788.788,0,0,1,.791-.788.787.787,0,0,1,.787.788v5.634a.789.789,0,0,1-.787.788A.789.789,0,0,1,9761.211-715.7Zm-13.421-9.108a.789.789,0,0,1-.79-.79.789.789,0,0,1,.79-.788h3.3l3.8-8.154a.788.788,0,0,1,1.047-.383.788.788,0,0,1,.383,1.048l-3.485,7.489h18.332l-3.483-7.489a.785.785,0,0,1,.383-1.048.788.788,0,0,1,1.048.383l3.795,8.154h3.3a.789.789,0,0,1,.79.788.79.79,0,0,1-.79.79Z" transform="translate(-9746.5 735.552)" stroke="rgba(0,0,0,0)" stroke-miterlimit="10" stroke-width="1"/>
</svg>
