<svg xmlns="http://www.w3.org/2000/svg" width="14.7" height="10.781" viewBox="0 0 14.7 10.781">
  <path id="svg" d="M13.9,4H12.5L10.8.4A.687.687,0,0,0,9.9.1a.694.694,0,0,0-.2.9l1.4,3H3.5L4.9,1A.685.685,0,0,0,4.672.1.774.774,0,0,0,3.7.4L2,4H.7a.7.7,0,1,0,0,1.4h.8l1,3.3A2.568,2.568,0,0,0,5,10.8H9.7a2.489,2.489,0,0,0,2.5-2.1l1-3.3H14a.684.684,0,0,0,.7-.7A.773.773,0,0,0,13.9,4ZM11.8,5.4,11,8.3v.1a1.188,1.188,0,0,1-1.2,1H4.9a1.188,1.188,0,0,1-1.2-1l-.9-3Z" transform="translate(0 -0.019)" fill="#2a2a2a"/>
</svg>
