<svg xmlns="http://www.w3.org/2000/svg" width="23.844" height="24" viewBox="0 0 23.844 24">
  <path id="chef" d="M24.811,8.745a5.569,5.569,0,0,0-5.562-5.564q-.2,0-.4.015a7.149,7.149,0,0,0-11.914,0q-.2-.015-.4-.015a5.564,5.564,0,0,0-.792,11.07v7.689A2.061,2.061,0,0,0,7.8,24H17.982a2.061,2.061,0,0,0,2.059-2.059V14.251A5.571,5.571,0,0,0,24.811,8.745ZM17.982,22.416H7.8a.482.482,0,0,1-.475-.475V14.252a5.473,5.473,0,0,0,2.177-.8,7.109,7.109,0,0,0,6.781,0,5.476,5.476,0,0,0,2.177.8v7.689A.482.482,0,0,1,17.982,22.416Zm1.267-9.691a3.946,3.946,0,0,1-1.527-.3A7.127,7.127,0,0,0,19.78,9.069a.792.792,0,0,0-1.526-.423,5.567,5.567,0,0,1-10.729,0A.792.792,0,0,0,6,9.069a7.125,7.125,0,0,0,2.058,3.352A3.98,3.98,0,1,1,6.529,4.765a4.036,4.036,0,0,1,.679.059.793.793,0,0,0,.824-.393,5.566,5.566,0,0,1,9.714,0,.792.792,0,0,0,.824.393,4.036,4.036,0,0,1,.678-.059,3.98,3.98,0,0,1,0,7.96Z" transform="translate(-0.967)" fill="#fff"/>
</svg>
