<svg id="Сгруппировать_3532" data-name="Сгруппировать 3532" xmlns="http://www.w3.org/2000/svg" width="20" height="20" viewBox="0 0 20 20">
  <path id="Контур_10798" data-name="Контур 10798" d="M10,0A10,10,0,1,0,20,10,10.011,10.011,0,0,0,10,0Zm0,18.6A8.6,8.6,0,1,1,18.6,10,8.61,8.61,0,0,1,10,18.6Z" fill="#b4b4b4"/>
  <path id="Контур_10799" data-name="Контур 10799" d="M14.014,9l-3.76,1.186L6.742,5.67a.7.7,0,0,0-1.106.859l3.811,4.9A.7.7,0,0,0,10,11.7a.723.723,0,0,0,.21-.032l4.226-1.333A.7.7,0,1,0,14.014,9Z" fill="#b4b4b4"/>
</svg>
