<svg id="&#x421;&#x433;&#x440;&#x443;&#x43F;&#x43F;&#x438;&#x440;&#x43E;&#x432;&#x430;&#x442;&#x44C;_3532" data-name="&#x421;&#x433;&#x440;&#x443;&#x43F;&#x43F;&#x438;&#x440;&#x43E;&#x432;&#x430;&#x442;&#x44C; 3532" xmlns="http://www.w3.org/2000/svg" width="20" height="20" viewBox="0 0 20 20">
  <path id="&#x41A;&#x43E;&#x43D;&#x442;&#x443;&#x440;_10798" data-name="&#x41A;&#x43E;&#x43D;&#x442;&#x443;&#x440; 10798" d="M10,0A10,10,0,1,0,20,10,10.011,10.011,0,0,0,10,0Zm0,18.6A8.6,8.6,0,1,1,18.6,10,8.61,8.61,0,0,1,10,18.6Z"/>
  <path id="&#x41A;&#x43E;&#x43D;&#x442;&#x443;&#x440;_10799" data-name="&#x41A;&#x43E;&#x43D;&#x442;&#x443;&#x440; 10799" d="M14.014,9l-3.76,1.186L6.742,5.67a.7.7,0,0,0-1.106.859l3.811,4.9A.7.7,0,0,0,10,11.7a.723.723,0,0,0,.21-.032l4.226-1.333A.7.7,0,1,0,14.014,9Z"/>
</svg>
