<svg xmlns="http://www.w3.org/2000/svg" width="25" height="24.887" viewBox="0 0 25 24.887">
  <g id="&#x421;&#x433;&#x440;&#x443;&#x43F;&#x43F;&#x438;&#x440;&#x43E;&#x432;&#x430;&#x442;&#x44C;_680" data-name="&#x421;&#x433;&#x440;&#x443;&#x43F;&#x43F;&#x438;&#x440;&#x43E;&#x432;&#x430;&#x442;&#x44C; 680" transform="translate(0 -1.104)">
    <path id="&#x41A;&#x43E;&#x43D;&#x442;&#x443;&#x440;_220" data-name="&#x41A;&#x43E;&#x43D;&#x442;&#x443;&#x440; 220" d="M10.024,303.278q-.159.013-.318.014a3.759,3.759,0,0,1-.85-.106l-6.4,6.4a.8.8,0,0,0,0,1.138l1.657,1.658a.8.8,0,0,0,1.137,0l7.7-7.7-1.426-1.539Z" transform="translate(-2.102 -286.63)"/>
    <path id="&#x41A;&#x43E;&#x43D;&#x442;&#x443;&#x440;_221" data-name="&#x41A;&#x43E;&#x43D;&#x442;&#x443;&#x440; 221" d="M260.98,6.389a.769.769,0,0,0-1.087,0l-4.15,4.15a1,1,0,1,1-1.421-1.419l4.13-4.129a.8.8,0,0,0-1.132-1.132l-4.128,4.128a1,1,0,0,1-1.421-1.419l4.149-4.15a.77.77,0,0,0-1.089-1.089L250.162,6a4.315,4.315,0,0,0-1.114,4.134l3.13,3.13a4.316,4.316,0,0,0,4.133-1.115l4.669-4.668A.769.769,0,0,0,260.98,6.389Z" transform="translate(-236.205)"/>
    <path id="&#x41A;&#x43E;&#x43D;&#x442;&#x443;&#x440;_222" data-name="&#x41A;&#x43E;&#x43D;&#x442;&#x443;&#x440; 222" d="M2.1,9.185a.847.847,0,0,0-.6-.248.859.859,0,0,0-.141.012.846.846,0,0,0-.621.466,7.377,7.377,0,0,0,1.424,8.428l3.971,3.971a2.078,2.078,0,0,0,1.471.609c.059,0,.118,0,.176-.007l2.306-.2L20.14,33.066a.848.848,0,0,0,.605.271h.015a.852.852,0,0,0,.6-.248l1.722-1.722a.848.848,0,0,0,0-1.2Z" transform="translate(0 -7.433)"/>
  </g>
</svg>
