<svg xmlns="http://www.w3.org/2000/svg" width="23.893" height="24" viewBox="0 0 23.893 24">
  <path id="Контур_4953" data-name="Контур 4953" d="M20.458,41.712a2.505,2.505,0,0,0-1.817-.833,2.591,2.591,0,0,0-1.839.828L15.1,43.4c-.14-.075-.28-.145-.414-.215-.194-.1-.376-.188-.532-.285a18.465,18.465,0,0,1-4.425-4.032,10.894,10.894,0,0,1-1.452-2.29c.441-.4.849-.823,1.247-1.226.151-.151.3-.306.452-.457a2.467,2.467,0,0,0,0-3.72L8.512,29.707c-.167-.167-.339-.339-.5-.511-.323-.333-.661-.677-1.011-1a2.545,2.545,0,0,0-1.8-.79,2.634,2.634,0,0,0-1.828.79l-.011.011L1.533,30.051a3.933,3.933,0,0,0-1.167,2.5,9.425,9.425,0,0,0,.688,3.989A23.149,23.149,0,0,0,5.168,43.4,25.3,25.3,0,0,0,13.592,50a13.126,13.126,0,0,0,4.731,1.4c.113.005.231.011.339.011a4.051,4.051,0,0,0,3.1-1.333c.005-.011.016-.016.022-.027a12.224,12.224,0,0,1,.941-.973c.231-.22.468-.452.7-.694a2.682,2.682,0,0,0,.812-1.86,2.584,2.584,0,0,0-.828-1.844Zm1.925,5.661c-.005,0-.005.005,0,0-.21.226-.425.43-.656.656A14.137,14.137,0,0,0,20.689,49.1a2.592,2.592,0,0,1-2.022.855c-.081,0-.167,0-.247-.005A11.661,11.661,0,0,1,14.227,48.7a23.882,23.882,0,0,1-7.935-6.215A21.827,21.827,0,0,1,2.42,36.035a7.676,7.676,0,0,1-.6-3.366,2.468,2.468,0,0,1,.742-1.6l1.833-1.833a1.222,1.222,0,0,1,.817-.382A1.15,1.15,0,0,1,6,29.234l.016.016c.328.306.64.624.968.962.167.172.339.344.511.522L8.958,32.2a1.026,1.026,0,0,1,0,1.667c-.156.156-.306.312-.462.462-.452.462-.882.892-1.349,1.312-.011.011-.022.016-.027.027a1.1,1.1,0,0,0-.28,1.22l.016.048a11.784,11.784,0,0,0,1.737,2.833l.005.005a19.733,19.733,0,0,0,4.774,4.344,7.34,7.34,0,0,0,.661.36c.194.1.376.188.532.285.022.011.043.027.065.038a1.165,1.165,0,0,0,.532.134,1.15,1.15,0,0,0,.817-.371l1.839-1.839a1.216,1.216,0,0,1,.812-.4,1.1,1.1,0,0,1,.774.392l.011.011,2.962,2.962A1.063,1.063,0,0,1,22.383,47.374Z" transform="translate(-0.344 -27.406)" fill="#4fb046"/>
</svg>
