<svg xmlns="http://www.w3.org/2000/svg" width="28" height="24.326" viewBox="0 0 28 24.326">
  <path id="&#x41A;&#x43E;&#x43D;&#x442;&#x443;&#x440;_10960" data-name="&#x41A;&#x43E;&#x43D;&#x442;&#x443;&#x440; 10960" d="M65.267,22.663a1.234,1.234,0,0,0-.933-.208,1.249,1.249,0,0,0-.816.525L62.046,25.2A12.2,12.2,0,0,0,49.972,14.529h-.008a12.163,12.163,0,1,0-.017,24.326,12.226,12.226,0,0,0,8.665-3.6,1.251,1.251,0,0,0-.054-1.768,1.287,1.287,0,0,0-.894-.341,1.227,1.227,0,0,0-.864.382,9.613,9.613,0,0,1-6.839,2.832H49.95a9.677,9.677,0,0,1,.008-19.355h.011a9.669,9.669,0,0,1,9.6,8.537L57.344,23.54A1.253,1.253,0,0,0,55.289,24.6a1.236,1.236,0,0,0,.429.842l4.656,4.187a1.213,1.213,0,0,0,.814.326h.007l.17-.009a1.242,1.242,0,0,0,.89-.548l3.356-5.051A1.248,1.248,0,0,0,65.267,22.663Z" transform="translate(-37.801 -14.529)"/>
</svg>
