<svg id="svg" xmlns="http://www.w3.org/2000/svg" width="24" height="24" viewBox="0 0 24 24">
  <path id="Контур_10811" data-name="Контур 10811" d="M12,0A12,12,0,1,0,24,12,12.035,12.035,0,0,0,12,0Zm0,22A10,10,0,1,1,22,12,10.029,10.029,0,0,1,12,22Z" fill="#4fb046"/>
  <path id="Контур_10812" data-name="Контур 10812" d="M12,11a.945.945,0,0,0-1,1v4a1,1,0,0,0,2,0V12A.945.945,0,0,0,12,11Z" fill="#4fb046"/>
  <path id="Контур_10813" data-name="Контур 10813" d="M12.7,6.3a.1.1,0,0,1-.1-.1c-.1,0-.1-.1-.2-.1s-.1,0-.2-.1a.806.806,0,0,0-.9.3A.908.908,0,0,0,11,7v.2c0,.1,0,.1.1.2,0,.1.1.1.1.2l.1.1c.1.1.2.2.3.2A.6.6,0,0,0,12,8h.2c.1,0,.1,0,.2-.1.1,0,.1-.1.2-.1l.1-.1A.908.908,0,0,0,13,7a.6.6,0,0,0-.1-.4C12.9,6.5,12.8,6.4,12.7,6.3Z" fill="#4fb046"/>
</svg>
