<svg xmlns="http://www.w3.org/2000/svg" width="21.614" height="23.409" viewBox="0 0 21.614 23.409">
  <path id="Контур_10787" data-name="Контур 10787" d="M10.981,14.06a7.42,7.42,0,0,0,.818,0,9.185,9.185,0,0,1,8.817,9.076l0,.044a.8.8,0,0,0,.736.736.838.838,0,0,0,.583-.19.8.8,0,0,0,.277-.546A10.7,10.7,0,0,0,15.5,13.274l-.5-.2.433-.319a6.784,6.784,0,0,0,0-10.919,6.785,6.785,0,1,0-8.057,10.92l.432.318-.5.2A10.691,10.691,0,0,0,.6,23.2a.8.8,0,0,0,.735.712.847.847,0,0,0,.581-.19.791.791,0,0,0,.278-.546A9.171,9.171,0,0,1,10.981,14.06ZM6.226,7.649a5.19,5.19,0,1,1,5.81,4.8v.042l-.391-.014c-.08,0-.162-.007-.241-.007l-.33.006A5.213,5.213,0,0,1,6.226,7.649Z" transform="translate(-0.601 -0.507)" fill="#b4b4b4"/>
</svg>
