<svg xmlns="http://www.w3.org/2000/svg" width="29.105" height="22" viewBox="0 0 29.105 22">
  <g id="&#x421;&#x433;&#x440;&#x443;&#x43F;&#x43F;&#x438;&#x440;&#x43E;&#x432;&#x430;&#x442;&#x44C;_676" data-name="&#x421;&#x433;&#x440;&#x443;&#x43F;&#x43F;&#x438;&#x440;&#x43E;&#x432;&#x430;&#x442;&#x44C; 676" transform="translate(0 -59.725)">
    <g id="&#x421;&#x433;&#x440;&#x443;&#x43F;&#x43F;&#x438;&#x440;&#x43E;&#x432;&#x430;&#x442;&#x44C;_675" data-name="&#x421;&#x433;&#x440;&#x443;&#x43F;&#x43F;&#x438;&#x440;&#x43E;&#x432;&#x430;&#x442;&#x44C; 675" transform="translate(0 59.725)">
      <path id="&#x41A;&#x43E;&#x43D;&#x442;&#x443;&#x440;_215" data-name="&#x41A;&#x43E;&#x43D;&#x442;&#x443;&#x440; 215" d="M72.355,165.414a1.56,1.56,0,1,0,2.207,2.207,10.785,10.785,0,0,1,15.234,0,1.558,1.558,0,1,0,2.2-2.207A13.9,13.9,0,0,0,72.355,165.414Z" transform="translate(-67.623 -155.305)"/>
      <path id="&#x41A;&#x43E;&#x43D;&#x442;&#x443;&#x440;_216" data-name="&#x41A;&#x43E;&#x43D;&#x442;&#x443;&#x440; 216" d="M143.155,263.807a1.56,1.56,0,0,0,2.207,2.207,4.811,4.811,0,0,1,6.8,0,1.556,1.556,0,1,0,2.2-2.2A7.929,7.929,0,0,0,143.155,263.807Z" transform="translate(-134.212 -249.486)"/>
      <circle id="&#x42D;&#x43B;&#x43B;&#x438;&#x43F;&#x441;_31" data-name="&#x42D;&#x43B;&#x43B;&#x438;&#x43F;&#x441; 31" cx="2.076" cy="2.076" r="2.076" transform="translate(12.477 17.848)"/>
      <path id="&#x41A;&#x43E;&#x43D;&#x442;&#x443;&#x440;_217" data-name="&#x41A;&#x43E;&#x43D;&#x442;&#x443;&#x440; 217" d="M28.65,65.551a19.969,19.969,0,0,0-28.2,0,1.56,1.56,0,0,0,2.207,2.207,16.834,16.834,0,0,1,23.787,0,1.558,1.558,0,0,0,2.2-2.207Z" transform="translate(0 -59.725)"/>
    </g>
  </g>
</svg>
