<svg xmlns="http://www.w3.org/2000/svg" width="79.181" height="109.738" viewBox="0 0 79.181 109.738">
  <g id="_3_cook_chef_restaurant_cafe_food_lunch" data-name="3 cook, chef, restaurant, cafe, food, lunch" transform="translate(-10 -1.51)">
    <g id="Сгруппировать_3723" data-name="Сгруппировать 3723" transform="translate(10 1.51)">
      <path id="Контур_10875" data-name="Контур 10875" d="M36.994,48.51l12.579,4.5-12.6,4.5v16.16H10V62.925A14.385,14.385,0,0,1,24.4,48.51h12.6Z" transform="translate(-10 36.07)" fill="#545c66"/>
      <path id="Контур_10876" data-name="Контур 10876" d="M77.2,62.907V73.668H24.99V57.508l12.6-4.5h.018l12.579-4.5H62.8A14.393,14.393,0,0,1,77.2,62.907Z" transform="translate(1.986 36.07)" fill="#656d78"/>
      <path id="Контур_10877" data-name="Контур 10877" d="M50.194,43.78v8.51h-.018L37.6,56.791h-.018L25,52.292V43.78a27.042,27.042,0,0,0,25.194,0Z" transform="translate(1.994 32.288)" fill="#eac6bb"/>
      <path id="Контур_10878" data-name="Контур 10878" d="M48.493,38.908a4.489,4.489,0,0,0-4.5,4.5,4.489,4.489,0,0,0-4.5-4.5H27.8a3.6,3.6,0,0,1-3.6-3.6v3.6a8.988,8.988,0,0,0,9,9h6.3a4.5,4.5,0,0,0,4.5-4.5,4.5,4.5,0,0,0,4.5,4.5h6.3a9,9,0,0,0,9-9v-3.6h-.018a3.6,3.6,0,0,1-3.581,3.6Zm22.495-14.4v10.8a26.994,26.994,0,1,1-53.987,0V24.51H70.987Z" transform="translate(-4.403 16.88)" fill="#eac6bb"/>
      <g id="Сгруппировать_3721" data-name="Сгруппировать 3721" transform="translate(35.988 41.39)">
        <path id="Контур_10879" data-name="Контур 10879" d="M53.389,24.51v10.8H53.4v3.6a8.916,8.916,0,0,1-1.267,4.531A26.928,26.928,0,0,1,30,62.058a26.973,26.973,0,0,0,30.6-26.749v-10.8H53.389Z" transform="translate(-29.998 -24.51)" fill="#d3b1a9"/>
      </g>
      <path id="Контур_10880" data-name="Контур 10880" d="M24.6,34.111H36.3a4.5,4.5,0,0,1,0,9H30a8.988,8.988,0,0,1-9-9v-3.6A3.6,3.6,0,0,0,24.6,34.111Z" transform="translate(-1.205 21.678)" fill="#fc6e51"/>
      <path id="Контур_10881" data-name="Контур 10881" d="M48.2,34.111a3.6,3.6,0,0,0,3.581-3.6H51.8v3.6a9,9,0,0,1-9,9H36.5a4.5,4.5,0,0,1,0-9Z" transform="translate(7.591 21.678)" fill="#fc6e51"/>
      <path id="Контур_10882" data-name="Контур 10882" d="M75,31.581,74.977,42.9H20.99l.018-11.319a12.6,12.6,0,0,1,3.6-24.672H35.153a17.99,17.99,0,0,1,25.7,0H71.362A12.6,12.6,0,0,1,75,31.581Z" transform="translate(-8.393 -1.51)" fill="#656d78"/>
      <g id="Сгруппировать_3722" data-name="Сгруппировать 3722" transform="translate(55.762 5.399)">
        <path id="Контур_10883" data-name="Контур 10883" d="M48.192,4.51H40.986a12.605,12.605,0,0,1,3.635,24.672L44.6,40.5h7.205l.018-11.319A12.605,12.605,0,0,0,48.192,4.51Z" transform="translate(-40.986 -4.51)" fill="#545c66"/>
      </g>
    </g>
    <path id="Контур_10884" data-name="Контур 10884" d="M53.6,29.5h0a1.8,1.8,0,0,0-1.8,1.8,1.8,1.8,0,0,1-1.8,1.8H38.3a6.3,6.3,0,0,0,0,12.6h6.3a10.809,10.809,0,0,0,10.8-10.8V31.3A1.8,1.8,0,0,0,53.6,29.5Z" transform="translate(17.591 22.377)" fill="#fd7e62"/>
    <path id="Контур_10885" data-name="Контур 10885" d="M36.095,33.092H24.4a1.8,1.8,0,0,1-1.8-1.8,1.8,1.8,0,0,0-1.8-1.8h0A1.8,1.8,0,0,0,19,31.3v3.6a10.809,10.809,0,0,0,10.8,10.8h6.3a6.3,6.3,0,0,0,0-12.6Z" transform="translate(7.195 22.377)" fill="#fd7e62"/>
    <g id="Сгруппировать_3724" data-name="Сгруппировать 3724" transform="translate(42.437 98.669)">
      <path id="Контур_10886" data-name="Контур 10886" d="M29.834,59.1a1.8,1.8,0,0,1-.02-3.6h.02a1.8,1.8,0,0,1,0,3.6Z" transform="translate(-28.025 -55.5)" fill="#545c66"/>
    </g>
    <g id="Сгруппировать_3725" data-name="Сгруппировать 3725" transform="translate(42.437 105.866)">
      <path id="Контур_10887" data-name="Контур 10887" d="M29.834,63.1a1.8,1.8,0,0,1-.02-3.6h.02a1.8,1.8,0,0,1,0,3.6Z" transform="translate(-28.025 -59.499)" fill="#545c66"/>
    </g>
    <g id="Сгруппировать_3726" data-name="Сгруппировать 3726" transform="translate(53.246 98.669)">
      <path id="Контур_10888" data-name="Контур 10888" d="M35.84,59.1a1.8,1.8,0,0,1-.02-3.6h.02a1.8,1.8,0,0,1,0,3.6Z" transform="translate(-34.031 -55.5)" fill="#545c66"/>
    </g>
    <g id="Сгруппировать_3727" data-name="Сгруппировать 3727" transform="translate(53.246 105.866)">
      <path id="Контур_10889" data-name="Контур 10889" d="M35.84,63.1a1.8,1.8,0,0,1-.02-3.6h.02a1.8,1.8,0,0,1,0,3.6Z" transform="translate(-34.031 -59.499)" fill="#545c66"/>
    </g>
  </g>
</svg>
