<svg xmlns="http://www.w3.org/2000/svg" width="220" height="103.56" viewBox="0 0 220 103.56">
  <g id="Сгруппировать_3855" data-name="Сгруппировать 3855" transform="translate(-53.468 -403.597)">
    <path id="Контур_10895" data-name="Контур 10895" d="M60.068,464.934c-3.294-1.791-3.624-2.911-1.842-5.845a76,76,0,0,1,12.508-14.97c8.812-8.518,18.1-16.421,28.574-22.9,7.046-4.357,14.655-7.369,22.4-10.1,10.21-3.594,20.587-6.565,31.452-7.4a31.673,31.673,0,0,1,11.152.9,59.4,59.4,0,0,0,8.943,1.628,241.113,241.113,0,0,1,34.794,7.323c9.431,2.613,17.775,7.371,25.553,13.194a100.643,100.643,0,0,1,21.114,20.79,48.293,48.293,0,0,1,5.359,8.938c.616,1.381,1.3,2.775,1.031,4.355-.186,1.1.6,1.619,1.225,2.216q2.9,2.784,5.854,5.507a15.5,15.5,0,0,1,5.065,14.512,72.31,72.31,0,0,1-1.481,7.611,12.4,12.4,0,0,1-2.337,4.773,5.749,5.749,0,0,1-6.406,2.236c-1.569-.457-2.77-.554-4.1.68-.937.871-2.313,1.233-3.336,2.142a3.326,3.326,0,0,1-3.076.4c-.663-.158-1.2-.238-1.638.415-.985,1.469-2.527,1.609-4.061,1.5a11.139,11.139,0,0,0-5.409,1.02,17.611,17.611,0,0,1-8.919,1.3,7.627,7.627,0,0,0-4.155.641,13.506,13.506,0,0,1-11.42.16,8.254,8.254,0,0,0-4.162-.558c-4.089.37-8.039-.005-11.44-2.664a5.143,5.143,0,0,0-3.289-.92,14.141,14.141,0,0,1-9.457-3.108,1.263,1.263,0,0,0-1.871.029c-3.345,2.767-7.211,3.368-11.344,2.58a3.8,3.8,0,0,0-2.535.558c-2.6,1.275-5.128,1.392-7.606-.3a2.494,2.494,0,0,0-2.74-.281,5.379,5.379,0,0,1-4.185.024,9.9,9.9,0,0,0-5.02-.215c-1.671.287-3.362.46-5.042.7a21.218,21.218,0,0,1-12.466-2.271c-2.567-1.253-4.575-.429-6.392.977-3.114,2.409-6.43,2.458-9.852,1.269a7.94,7.94,0,0,0-4.669-.286c-4.12.958-8.274,1.506-12.352-.263a2.434,2.434,0,0,0-1.806.135c-5.214,1.611-7.955.844-10.829-3.537a4.26,4.26,0,0,0-4.533-2.153c-3.45.233-6.791-.446-9.218-3.312-.572-.676-1.126-.559-1.888-.334-2.308.684-4.633,1.35-6.991,1.819-3.364.67-6.587.559-9.124-2.307a9.931,9.931,0,0,0-2-1.328c-2-1.347-2.376-2.2-1.733-4.506.43-1.544,1.084-3.023,1.546-4.559.319-1.057.442-1.938-1.108-2.413-1.483-.454-1.619-1.259-.975-3.036a34.619,34.619,0,0,1,4.292-8C58.735,466.83,59.349,465.96,60.068,464.934Zm179.044,18.251a.462.462,0,0,0-.558-.446l-.039-.031a6.758,6.758,0,0,0-2.19-1.892,125.966,125.966,0,0,0-21.666-12.679c-16.172-7.718-32.988-12.892-51.043-13.514a86.239,86.239,0,0,0-40.23,8.087c-8.932,4.192-16.856,9.959-24.868,15.6-2.9,2.044-5.782,4.12-8.671,6.181a.452.452,0,0,0-.414.2,3.268,3.268,0,0,0-2.057,1.185l-.5.247a.432.432,0,0,0-.555.4l-5.561,2.853c-1.078.486-2.37.582-3.192,1.631a6.412,6.412,0,0,0,4.154,2.417,11.236,11.236,0,0,0,5.052.093,3.22,3.22,0,0,1,3.784,1.772,20.538,20.538,0,0,0,2.073,2.785c1.391,1.625,3.267,2.477,5.27,1.793a12.578,12.578,0,0,1,7.969.095c2.784.808,5.7.17,8.478-.5a10.024,10.024,0,0,1,5.974.345,9.084,9.084,0,0,0,9.327-1.462,5.277,5.277,0,0,1,6.347-.886,23.629,23.629,0,0,0,15.668,1.768c.435-.095.885-.122,1.324-.2a10.549,10.549,0,0,1,5.809.24,3.66,3.66,0,0,0,3.128-.032,3.5,3.5,0,0,1,4.01.343,5.593,5.593,0,0,0,6.294.271,3.883,3.883,0,0,1,2.778-.747,12.016,12.016,0,0,0,11.261-2.6,2.173,2.173,0,0,1,3.14.17,12.6,12.6,0,0,0,8.621,3.07,6.348,6.348,0,0,1,4.083,1.011c3.228,2.584,6.979,3,10.9,2.506a7.453,7.453,0,0,1,4.168.561,11.978,11.978,0,0,0,10.6-.079,8.5,8.5,0,0,1,4.679-.706,15.813,15.813,0,0,0,8.135-1.141,10.826,10.826,0,0,1,5.932-1.17,2.96,2.96,0,0,0,3.223-1.373,1.852,1.852,0,0,1,2.115-.776,11.719,11.719,0,0,0,1.563.316c.625.028,1.218.062.9-1.008-.422-1.407.387-1.556,1.469-1.043,1.116.53,2,.485,2.6-.835-.947-.547-1.787-1.048-2.642-1.52a4.109,4.109,0,0,0-.751-.247l-13.478-9.157a.554.554,0,0,0-.6-.467l-.612-.484a.487.487,0,0,0-.57-.44l-.037-.029a.464.464,0,0,0-.558-.444Zm-123.365-67.3.012-.023a7.554,7.554,0,0,0-4.084,1.565c-3.8,1.12-7.145,3.175-10.5,5.19-12.644,7.594-23.572,17.261-33.637,27.96a59.3,59.3,0,0,0-7.454,9.77c-.962,1.579-.884,1.684.743,2.188,2.573.8,2.731,1.224,1.222,3.489-.741,1.113-1.529,2.2-2.3,3.287a37.5,37.5,0,0,0-3.288,5.813c-.434.924-.586,1.586.582,2.119,1.238.565,1.35,1.712,1.221,2.969-.186,1.805-1.161,3.37-1.433,5.139-.833,2.3-.826,2.285.924,3.467a14.71,14.71,0,0,1,2.14,1.593,6.16,6.16,0,0,0,5.412,1.644,38.769,38.769,0,0,0,9.307-2.376c7.735-2.939,14.676-7.253,21.427-11.983,6.35-4.45,12.534-9.133,19.295-13.016,17.829-10.24,36.886-13.825,57.222-11.405a131.379,131.379,0,0,1,37.957,10.771c10.392,4.615,20.441,9.806,29.372,16.94a169.769,169.769,0,0,0,15.523,10.958,37.267,37.267,0,0,0,6.936,3.455c3.062,1.133,4.611.447,6.183-2.655l.04-.17a1.4,1.4,0,0,0,.688-1.488,31.569,31.569,0,0,0,2.018-9.6,12.021,12.021,0,0,0-1.308-7.238,20.3,20.3,0,0,0-5.295-5.925l-.537-.555c-.973-.782-1.413-2.343-3.081-2.112l-.028-.015c.545-.656-.158-.912-.438-1.266-1.268-1.607-2.587-3.175-3.84-4.793-.453-.585-.791-1.6.024-1.835,1.758-.51,1.139-1.358.6-2.292a76.993,76.993,0,0,0-16.71-19.974,7.975,7.975,0,0,0-2.794-2.412A84,84,0,0,0,218.751,420a70.4,70.4,0,0,0-19.455-6.379,13.915,13.915,0,0,0-5.147-1.269,162.382,162.382,0,0,0-19.944-3.859,76.446,76.446,0,0,1-11.055-1.968,6.548,6.548,0,0,0-3.412-.407,15.332,15.332,0,0,0-6.824-.127c-.885.049-1.777.04-2.654.155a139.3,139.3,0,0,0-33.836,9.273C116.113,415.449,115.758,415.414,115.747,415.884Z" transform="translate(0 0)" fill="#180d09"/>
    <path id="Контур_10896" data-name="Контур 10896" d="M57.282,485.757c.272-1.769,1.248-3.334,1.433-5.139.129-1.257.016-2.4-1.221-2.969-1.168-.534-1.017-1.195-.582-2.119a37.5,37.5,0,0,1,3.288-5.813c.773-1.092,1.561-2.175,2.3-3.287,1.509-2.266,1.35-2.693-1.222-3.489-1.627-.5-1.705-.609-.743-2.188a59.3,59.3,0,0,1,7.454-9.77c10.065-10.7,20.993-20.365,33.637-27.96,3.354-2.015,6.7-4.07,10.5-5.19.226,1.6-.754,2.9-1.084,4.37a75.577,75.577,0,0,0-.629,29.216c.185,1.114.473,2.172,1.83,2.249.894.05,1.422-1,1.377-2.509,0-.089-.015-.178-.024-.267a118.61,118.61,0,0,1-.473-13.6c.075-6.255.474-12.454,2.6-18.423a5.042,5.042,0,0,0,.489-2.6l-.012.023.678-.462a139.3,139.3,0,0,1,33.836-9.273c.877-.115,1.769-.106,2.655-.155a2.053,2.053,0,0,1-.027.53,108.817,108.817,0,0,0-4.829,25.673,35.7,35.7,0,0,0,.149,8.527,9.1,9.1,0,0,0,1.291,3.482,1.445,1.445,0,0,0,2.67-.757,10.25,10.25,0,0,0-.072-1.334c-.215-2.217-.219-4.439-.288-6.662-.3-9.69,2.214-18.689,6.245-27.365a3.165,3.165,0,0,1,1.685-1.969,6.548,6.548,0,0,1,3.412.407,76.451,76.451,0,0,0,11.055,1.968A162.376,162.376,0,0,1,194.6,412.76c.192.877-.349,1.527-.685,2.245a111.6,111.6,0,0,0-8.284,27.293,10.287,10.287,0,0,0-.174,2.653,1.3,1.3,0,0,0,1.195,1.253,1.229,1.229,0,0,0,1.373-1.007c.148-.509.194-1.046.3-1.568,1.924-9.384,4.679-18.483,9.267-26.951a5.615,5.615,0,0,1,2.153-2.649,70.4,70.4,0,0,1,19.455,6.379,84,84,0,0,1,19.117,13.066c-5.786,6.5-10.185,13.924-14.323,21.519a16.66,16.66,0,0,0-.845,1.961c-.285.732-.306,1.439.563,1.785a1.337,1.337,0,0,0,1.794-.7c.264-.464.53-.93.769-1.408a97.791,97.791,0,0,1,13.24-19.361,3.972,3.972,0,0,1,1.6-1.383,76.993,76.993,0,0,1,16.71,19.974c.539.934,1.158,1.782-.6,2.292-.815.236-.477,1.25-.024,1.835,1.253,1.618,2.572,3.186,3.84,4.793.28.354.983.61.436,1.266a10.148,10.148,0,0,0-1.493.338.758.758,0,0,0-.453.843.881.881,0,0,0,.616.753.806.806,0,0,0,1.081-.438,6.835,6.835,0,0,0,.28-1.482c1.669-.232,2.108,1.33,3.081,2.112l-.541.724c-.611-.3-1.246-.995-1.9-.251-.765.867.06,1.437.581,2.016.418.464.9.881,1.271,1.376,1.775,2.342,3.754,4.582,4.064,7.7a16.949,16.949,0,0,1-1.521,9.643,10.789,10.789,0,0,0-.569,1.209,1.032,1.032,0,0,0,.5,1.364.994.994,0,0,0,1.214-.268,3.057,3.057,0,0,0,.641-.851c2.5-5.438,3.42-10.917.051-16.342-1.125-1.81-2.538-3.443-3.819-5.157l.568-.606a20.3,20.3,0,0,1,5.295,5.925,12.021,12.021,0,0,1,1.308,7.238,31.579,31.579,0,0,1-2.018,9.6c-.5.373-1.135.68-.688,1.487l-.042.168a.941.941,0,0,0-1.012-.088c-1.875,1.355-3.627.673-5.508-.1a28.439,28.439,0,0,1-5.861-3.676c-3.6-2.626-6.68-5.852-10.292-8.5a176.317,176.317,0,0,0-21.4-13.112c-10.718-5.729-22-10.137-33.372-14.4-12.627-4.736-25.593-5.9-38.882-4.81a83.36,83.36,0,0,0-9.231,1.424,91.106,91.106,0,0,0-10.86,2.708,95.556,95.556,0,0,0-22.887,10.783c-6.637,4.361-13.343,8.616-20.026,12.908a82.83,82.83,0,0,0-7.709,5.308,40.175,40.175,0,0,1-13.37,7.126c-3.881,1.234-7.587,1.265-10.43-2.353A3.713,3.713,0,0,0,57.282,485.757Zm10.4-28.574c.723-.063,1.041-.637,1.422-1.121a73.361,73.361,0,0,1,6.246-6.98,199.414,199.414,0,0,1,25.757-20.9,20.016,20.016,0,0,0,1.693-1.3.825.825,0,0,0,.141-1.192.969.969,0,0,0-.97-.305,5.851,5.851,0,0,0-2.121,1.1,184.935,184.935,0,0,0-15.674,11.672A103.464,103.464,0,0,0,68.064,453.8a4.958,4.958,0,0,0-1.271,2.017A1.022,1.022,0,0,0,67.679,457.183Zm132.708-41.228c-.7.052-.954.29-1.07.654a.851.851,0,0,0,.481,1.11c.651.285,1.342.481,2.019.7a105.133,105.133,0,0,1,29.592,14.712c.787.57,1.76,1.816,2.677.48.788-1.149-.62-1.654-1.315-2.218-5.176-4.2-11.126-7.088-17.1-9.906a74.715,74.715,0,0,0-13.761-5.177C201.31,416.161,200.7,416.029,200.387,415.955Zm-80.69,2.437c.419-.151.836-.308,1.259-.451a154.032,154.032,0,0,1,26.109-6.808,8.489,8.489,0,0,0,1.554-.376,1.021,1.021,0,0,0,.806-1.2,1.094,1.094,0,0,0-1.182-.877,12.4,12.4,0,0,0-2.124.21,159.085,159.085,0,0,0-25.511,6.985,11.3,11.3,0,0,0-1.7.774.931.931,0,0,0-.515,1.119C118.6,418.388,119.115,418.488,119.7,418.393ZM162,408.56c-.814.077-1.72-.054-1.805.9-.084.939.781,1.04,1.487,1.167.174.032.355.022.532.043,8.848,1.021,17.583,2.687,26.279,4.58.434.094.865.214,1.3.294.688.125,1.307-.034,1.469-.778s-.369-1.137-1-1.35c-.5-.169-1.028-.286-1.546-.411-7.621-1.844-15.388-2.877-23.114-4.134C164.38,408.674,163.126,408.653,162,408.56Zm93.566,46.073A4.956,4.956,0,0,0,254.5,452.6a96.048,96.048,0,0,0-11.865-12.989,9.325,9.325,0,0,0-1.5-1.1.833.833,0,0,0-1.175.242.884.884,0,0,0,.084,1.2,6.645,6.645,0,0,0,.569.56,102.179,102.179,0,0,1,12.3,13.672,11.539,11.539,0,0,0,1.245,1.38.747.747,0,0,0,.979.059A1.024,1.024,0,0,0,255.57,454.634ZM66.435,459.3c-.1-.589-.426-.961-1.034-.895a.9.9,0,0,0-.824,1.088.845.845,0,0,0,.881.77A.936.936,0,0,0,66.435,459.3Z" transform="translate(-0.452 -0.406)" fill="#eee"/>
    <path id="Контур_10897" data-name="Контур 10897" d="M94.044,493.629a.451.451,0,0,1,.413-.2,3.738,3.738,0,0,0,2.292-.588q2.762-1.636,5.539-3.249c2.948-1.7,5.5-3.955,8.26-5.925,5.7-4.073,12.024-6.914,18.382-9.792a96.744,96.744,0,0,1,22.88-7.119c6.548-1.178,13.19-1.964,19.9-1.022,5.47.767,10.97,1.379,16.372,2.526,9.643,2.049,18.78,5.666,27.854,9.425A150.363,150.363,0,0,1,239.6,490.061c1.078.692,1.947,1.964,3.527,1.583l.038.031a.5.5,0,0,0,.559.446l.034.027a.5.5,0,0,0,.558.444l.037.029a.514.514,0,0,0,.57.44l.612.484a.589.589,0,0,0,.6.467l13.478,9.157c-.55,1.054-2.041,1.119-2.438,2.356-.177.552-.7.555-1.113.35-1.474-.741-2.227.131-3.131,1.128-1.476,1.629-2.93,1.434-4.218-.4-1.108.729-2.2,1.5-3.333,2.182a10.952,10.952,0,0,1-6.926,1.439c-1.4-.131-1.875-.79-1.973-2.234-.883.721-1.545,1.168-2.094,1.728a8.465,8.465,0,0,1-6.559,2.472,28.062,28.062,0,0,1-3.983-.349c-.873-.145-2.071,0-2.047-1.539.009-.543-.6-.561-1.046-.375-4.024,1.673-7.9.575-11.72-.717-2.3-.776-2.3-.961-1.1-3.027.056-.1-.1-.316-.218-.667-.895.28-1.826.507-2.706.862a6.864,6.864,0,0,1-3.4.393,9.6,9.6,0,0,1-6.709-3.4c-1.2-1.425-1.581-1.422-3.058-.228-2.541,2.054-5.606,2.587-8.654,3.2a2.539,2.539,0,0,1-2.317-.278c-1.184-1.065-2.049-.625-3.266.133-2.11,1.314-4.435,2.055-6.566-.172a2.446,2.446,0,0,0-2.932-.456c-1.93.7-3.928,1.326-5.826-.2a1.558,1.558,0,0,0-1.526-.1,29.81,29.81,0,0,1-14.01.566c-2.618-.465-5.319-.792-7.682-2.186-2.418-1.426-2.37-1.394-4.731.339-1.864,1.368-3.761,2.727-6.16,3.072a2.768,2.768,0,0,1-3.024-1.184c-1.176-1.778-1.167-1.712-2.861-.741a13.091,13.091,0,0,1-11.843.629c-1.789-.732-3.319-1.285-4.991-.482-2.7,1.293-4.81-.068-7.01-1.21a2.773,2.773,0,0,1-1.329-1.6c-.983-2.636-1.066-2.667-3.86-2.372-1.953.206-3.9.527-5.858.616-1.751.08-2.213-.581-2.017-2.411l5.56-2.853a.445.445,0,0,0,.556-.4l.5-.247C92.879,494.776,93.831,494.845,94.044,493.629Z" transform="translate(-4.613 -8.935)" fill="#fff"/>
    <path id="Контур_10898" data-name="Контур 10898" d="M57.308,492.813a3.715,3.715,0,0,1,.857.605c2.844,3.618,6.549,3.587,10.43,2.353a40.173,40.173,0,0,0,13.37-7.126,82.836,82.836,0,0,1,7.709-5.308c6.683-4.292,13.388-8.547,20.026-12.908a95.555,95.555,0,0,1,22.887-10.783,91.1,91.1,0,0,1,10.86-2.708,83.36,83.36,0,0,1,9.231-1.424c13.289-1.089,26.254.074,38.882,4.81,11.369,4.264,22.655,8.672,33.372,14.4a176.325,176.325,0,0,1,21.4,13.112c3.612,2.65,6.689,5.876,10.292,8.5a28.443,28.443,0,0,0,5.861,3.676c1.881.772,3.633,1.454,5.508.1A.941.941,0,0,1,269,500.2c-1.57,3.1-3.12,3.79-6.182,2.657a37.266,37.266,0,0,1-6.936-3.455,169.77,169.77,0,0,1-15.523-10.958c-8.93-7.134-18.98-12.325-29.372-16.94a131.38,131.38,0,0,0-37.957-10.771c-20.336-2.419-39.393,1.166-57.222,11.405-6.761,3.883-12.945,8.566-19.295,13.016-6.751,4.73-13.692,9.045-21.427,11.983a38.767,38.767,0,0,1-9.307,2.376,6.16,6.16,0,0,1-5.412-1.644,14.708,14.708,0,0,0-2.14-1.593C56.482,495.1,56.475,495.109,57.308,492.813Z" transform="translate(-0.478 -7.462)" fill="#b4b4b4"/>
    <path id="Контур_10899" data-name="Контур 10899" d="M84.843,503.9c-.2,1.83.266,2.49,2.017,2.411,1.958-.089,3.9-.41,5.858-.616,2.793-.3,2.877-.263,3.86,2.372a2.773,2.773,0,0,0,1.329,1.6c2.2,1.143,4.315,2.5,7.01,1.21,1.672-.8,3.2-.25,4.991.482a13.091,13.091,0,0,0,11.843-.629c1.693-.972,1.685-1.037,2.861.741a2.768,2.768,0,0,0,3.024,1.184c2.4-.345,4.3-1.7,6.16-3.072,2.361-1.733,2.313-1.764,4.731-.339,2.364,1.394,5.065,1.721,7.682,2.186a29.809,29.809,0,0,0,14.01-.566,1.558,1.558,0,0,1,1.526.1c1.9,1.526,3.9.9,5.826.2a2.446,2.446,0,0,1,2.932.456c2.131,2.227,4.457,1.486,6.566.172,1.217-.759,2.082-1.2,3.266-.133a2.539,2.539,0,0,0,2.317.278c3.048-.611,6.113-1.144,8.654-3.2,1.477-1.194,1.858-1.2,3.058.228a9.6,9.6,0,0,0,6.709,3.4,6.863,6.863,0,0,0,3.4-.392c.88-.355,1.811-.582,2.706-.862.121.351.275.57.218.667-1.191,2.065-1.192,2.251,1.1,3.027,3.825,1.291,7.7,2.389,11.72.717.448-.186,1.054-.169,1.046.375-.025,1.542,1.173,1.394,2.047,1.539a28.066,28.066,0,0,0,3.983.349,8.465,8.465,0,0,0,6.559-2.472c.548-.559,1.21-1.007,2.094-1.728.1,1.444.576,2.1,1.973,2.234a10.952,10.952,0,0,0,6.926-1.439c1.137-.686,2.225-1.453,3.333-2.182,1.288,1.835,2.742,2.03,4.218.4.9-1,1.657-1.869,3.131-1.128.41.205.936.2,1.113-.35.4-1.237,1.888-1.3,2.438-2.356a4.109,4.109,0,0,1,.751.247c.855.472,1.7.972,2.642,1.52-.594,1.32-1.48,1.365-2.6.835-1.082-.513-1.891-.364-1.469,1.043.321,1.071-.272,1.037-.9,1.008a11.711,11.711,0,0,1-1.563-.316,1.852,1.852,0,0,0-2.115.776,2.96,2.96,0,0,1-3.223,1.373,10.826,10.826,0,0,0-5.932,1.17,15.812,15.812,0,0,1-8.135,1.141,8.5,8.5,0,0,0-4.679.706,11.978,11.978,0,0,1-10.6.079,7.453,7.453,0,0,0-4.168-.561c-3.924.49-7.674.078-10.9-2.506a6.348,6.348,0,0,0-4.083-1.011,12.6,12.6,0,0,1-8.621-3.07,2.173,2.173,0,0,0-3.14-.17,12.016,12.016,0,0,1-11.261,2.6,3.883,3.883,0,0,0-2.778.747,5.593,5.593,0,0,1-6.294-.271,3.5,3.5,0,0,0-4.01-.343,3.66,3.66,0,0,1-3.128.032,10.548,10.548,0,0,0-5.809-.24c-.439.082-.889.109-1.324.2a23.629,23.629,0,0,1-15.668-1.768,5.277,5.277,0,0,0-6.347.886,9.084,9.084,0,0,1-9.327,1.462,10.023,10.023,0,0,0-5.974-.345c-2.778.671-5.694,1.309-8.478.5a12.578,12.578,0,0,0-7.969-.095c-2,.684-3.879-.168-5.27-1.793a20.536,20.536,0,0,1-2.073-2.785,3.22,3.22,0,0,0-3.784-1.772,11.236,11.236,0,0,1-5.052-.093,6.412,6.412,0,0,1-4.154-2.417C82.473,504.478,83.765,504.382,84.843,503.9Z" transform="translate(-4.08 -14.521)" fill="#cacaca"/>
    <path id="Контур_10900" data-name="Контур 10900" d="M244.672,491.337c-1.58.381-2.449-.891-3.527-1.583a150.368,150.368,0,0,0-23.662-12.378c-9.074-3.759-18.21-7.375-27.854-9.425-5.4-1.147-10.9-1.759-16.372-2.526-6.712-.942-13.353-.156-19.9,1.022a96.745,96.745,0,0,0-22.88,7.119c-6.359,2.878-12.682,5.719-18.382,9.792-2.756,1.97-5.312,4.22-8.26,5.925q-2.779,1.609-5.539,3.249a3.737,3.737,0,0,1-2.292.588c2.89-2.061,5.769-4.137,8.672-6.181,8.012-5.64,15.936-11.407,24.868-15.6a86.24,86.24,0,0,1,40.23-8.087c18.055.623,34.871,5.8,51.043,13.514a125.966,125.966,0,0,1,21.666,12.679A6.758,6.758,0,0,1,244.672,491.337Z" transform="translate(-6.158 -8.628)" fill="#cacaca"/>
    <path id="Контур_10901" data-name="Контур 10901" d="M175.721,406.472a3.165,3.165,0,0,0-1.685,1.969c-4.031,8.675-6.548,17.674-6.245,27.365.069,2.223.073,4.445.288,6.662a10.251,10.251,0,0,1,.072,1.334,1.445,1.445,0,0,1-2.67.757,9.1,9.1,0,0,1-1.291-3.482,35.7,35.7,0,0,1-.149-8.527,108.817,108.817,0,0,1,4.829-25.673,2.053,2.053,0,0,0,.027-.53A15.328,15.328,0,0,1,175.721,406.472Z" transform="translate(-15.982 -0.351)" fill="#b4b4b4"/>
    <path id="Контур_10902" data-name="Контур 10902" d="M125.133,417.937a5.042,5.042,0,0,1-.489,2.6c-2.124,5.969-2.523,12.168-2.6,18.423a118.609,118.609,0,0,0,.473,13.6c.009.089.021.178.024.267.045,1.506-.483,2.56-1.377,2.509-1.357-.077-1.645-1.135-1.83-2.249a75.577,75.577,0,0,1,.629-29.216c.33-1.466,1.31-2.768,1.084-4.37A7.554,7.554,0,0,1,125.133,417.937Z" transform="translate(-9.374 -2.076)" fill="#b4b4b4"/>
    <path id="Контур_10903" data-name="Контур 10903" d="M221.56,415.106a5.616,5.616,0,0,0-2.153,2.649c-4.588,8.468-7.343,17.567-9.267,26.951-.107.522-.153,1.059-.3,1.568a1.229,1.229,0,0,1-1.373,1.007,1.3,1.3,0,0,1-1.195-1.253,10.285,10.285,0,0,1,.174-2.653,111.6,111.6,0,0,1,8.284-27.293c.336-.718.877-1.367.685-2.245A13.915,13.915,0,0,1,221.56,415.106Z" transform="translate(-22.264 -1.482)" fill="#b4b4b4"/>
    <path id="Контур_10904" data-name="Контур 10904" d="M269.28,440.469a3.972,3.972,0,0,0-1.6,1.383,97.791,97.791,0,0,0-13.24,19.361c-.239.478-.5.943-.769,1.408a1.337,1.337,0,0,1-1.794.7c-.869-.346-.848-1.053-.563-1.785a16.66,16.66,0,0,1,.845-1.961c4.138-7.6,8.537-15.019,14.323-21.519A7.969,7.969,0,0,1,269.28,440.469Z" transform="translate(-28.619 -4.989)" fill="#b4b4b4"/>
    <path id="Контур_10905" data-name="Контур 10905" d="M95.171,498.423c-.214,1.215-1.166,1.147-2.057,1.184A3.267,3.267,0,0,1,95.171,498.423Z" transform="translate(-5.74 -13.729)" fill="#cacaca"/>
    <path id="Контур_10907" data-name="Контур 10907" d="M273.259,498.792a.589.589,0,0,1-.6-.467A.554.554,0,0,1,273.259,498.792Z" transform="translate(-31.734 -13.715)" fill="#cacaca"/>
    <path id="Контур_10909" data-name="Контур 10909" d="M271.845,497.684a.513.513,0,0,1-.57-.44A.487.487,0,0,1,271.845,497.684Z" transform="translate(-31.534 -13.558)" fill="#cacaca"/>
    <path id="Контур_10910" data-name="Контур 10910" d="M92.44,500.095a.445.445,0,0,1-.556.4A.433.433,0,0,1,92.44,500.095Z" transform="translate(-5.562 -13.969)" fill="#cacaca"/>
    <path id="Контур_10911" data-name="Контур 10911" d="M271.137,497.134a.5.5,0,0,1-.558-.444A.464.464,0,0,1,271.137,497.134Z" transform="translate(-31.433 -13.477)" fill="#cacaca"/>
    <path id="Контур_10912" data-name="Контур 10912" d="M270.444,496.583a.5.5,0,0,1-.559-.446A.463.463,0,0,1,270.444,496.583Z" transform="translate(-31.332 -13.397)" fill="#cacaca"/>
    <path id="Контур_10913" data-name="Контур 10913" d="M126.968,417.424l-.678.462C126.3,417.415,126.656,417.451,126.968,417.424Z" transform="translate(-10.543 -2.002)" fill="#fcb088"/>
    <path id="Контур_10914" data-name="Контур 10914" d="M69.4,460.393a1.022,1.022,0,0,1-.886-1.365,4.958,4.958,0,0,1,1.271-2.017,103.464,103.464,0,0,1,16.11-15.645,184.949,184.949,0,0,1,15.674-11.672,5.852,5.852,0,0,1,2.121-1.1.969.969,0,0,1,.97.305.825.825,0,0,1-.141,1.192,20.01,20.01,0,0,1-1.693,1.3,199.411,199.411,0,0,0-25.757,20.9,73.368,73.368,0,0,0-6.246,6.98C70.44,459.756,70.122,460.33,69.4,460.393Z" transform="translate(-2.173 -3.616)" fill="#fff"/>
    <path id="Контур_10915" data-name="Контур 10915" d="M224.54,417.573c.317.074.923.206,1.523.355a74.708,74.708,0,0,1,13.761,5.177c5.975,2.818,11.924,5.706,17.1,9.906.7.564,2.1,1.07,1.315,2.218-.917,1.337-1.89.091-2.677-.48a105.131,105.131,0,0,0-29.592-14.712c-.677-.22-1.368-.416-2.019-.7a.851.851,0,0,1-.481-1.11C223.586,417.863,223.837,417.625,224.54,417.573Z" transform="translate(-24.605 -2.023)" fill="#fff"/>
    <path id="Контур_10916" data-name="Контур 10916" d="M130.151,418.778c-.581.1-1.1,0-1.3-.623a.931.931,0,0,1,.515-1.119,11.3,11.3,0,0,1,1.7-.774,159.082,159.082,0,0,1,25.511-6.985,12.4,12.4,0,0,1,2.124-.21,1.094,1.094,0,0,1,1.182.877,1.021,1.021,0,0,1-.806,1.2,8.494,8.494,0,0,1-1.554.376,154.029,154.029,0,0,0-26.109,6.808C130.988,418.471,130.571,418.628,130.151,418.778Z" transform="translate(-10.907 -0.792)" fill="#fff"/>
    <path id="Контур_10917" data-name="Контур 10917" d="M179.542,408.926c1.122.093,2.377.114,3.6.313,7.726,1.257,15.493,2.29,23.114,4.134.518.125,1.042.241,1.546.411.633.212,1.163.609,1,1.35s-.782.9-1.469.778c-.437-.08-.867-.2-1.3-.294-8.7-1.893-17.431-3.559-26.279-4.58-.177-.021-.357-.011-.532-.043-.706-.127-1.571-.228-1.487-1.167C177.823,408.872,178.728,409,179.542,408.926Z" transform="translate(-17.991 -0.772)" fill="#fff"/>
    <path id="Контур_10918" data-name="Контур 10918" d="M298.79,479.376c.17.145.341.29.511.436,1.28,1.715,2.693,3.347,3.819,5.158,3.369,5.426,2.451,10.9-.051,16.342a3.059,3.059,0,0,1-.641.851.994.994,0,0,1-1.214.268,1.032,1.032,0,0,1-.5-1.364,10.788,10.788,0,0,1,.569-1.209,16.95,16.95,0,0,0,1.521-9.643c-.31-3.116-2.289-5.356-4.064-7.7-.375-.5-.853-.912-1.271-1.376-.521-.579-1.345-1.149-.581-2.016C297.544,478.382,298.179,479.076,298.79,479.376Z" transform="translate(-35.197 -10.887)" fill="#fff"/>
    <path id="Контур_10919" data-name="Контур 10919" d="M286.578,460.045a1.024,1.024,0,0,1-.432.99.747.747,0,0,1-.979-.059,11.539,11.539,0,0,1-1.245-1.379,102.177,102.177,0,0,0-12.3-13.672,6.643,6.643,0,0,1-.569-.56.884.884,0,0,1-.084-1.2.833.833,0,0,1,1.175-.242,9.329,9.329,0,0,1,1.5,1.1,96.052,96.052,0,0,1,11.865,12.989A4.956,4.956,0,0,1,286.578,460.045Z" transform="translate(-31.46 -5.817)" fill="#fff"/>
    <path id="Контур_10920" data-name="Контур 10920" d="M67.786,468.1a.936.936,0,0,1-.977.963.845.845,0,0,1-.881-.77.9.9,0,0,1,.824-1.088C67.36,467.139,67.685,467.511,67.786,468.1Z" transform="translate(-1.803 -9.208)" fill="#fce0cd"/>
    <path id="Контур_10921" data-name="Контур 10921" d="M295.858,476.157a6.835,6.835,0,0,1-.28,1.482.806.806,0,0,1-1.081.438.881.881,0,0,1-.616-.753.758.758,0,0,1,.453-.843,10.148,10.148,0,0,1,1.493-.338Z" transform="translate(-34.805 -10.503)" fill="#fff"/>
  </g>
</svg>
