<svg xmlns="http://www.w3.org/2000/svg" width="101.251" height="101.207" viewBox="0 0 101.251 101.207">
  <g id="Сгруппировать_3863" data-name="Сгруппировать 3863" transform="translate(-417.956 -437.022)">
    <path id="Контур_10927" data-name="Контур 10927" d="M454.347,444.453l5.572,11.872a5.1,5.1,0,0,0,3.845,2.873l12.868,1.966a5.1,5.1,0,0,1,2.878,8.6l-9.627,9.868a5.1,5.1,0,0,0-1.382,4.382l2.228,13.66a5.1,5.1,0,0,1-7.5,5.283l-11.031-6.1a5.1,5.1,0,0,0-4.933,0l-11.031,6.1a5.1,5.1,0,0,1-7.5-5.283l2.228-13.66a5.1,5.1,0,0,0-1.384-4.382l-9.627-9.868a5.1,5.1,0,0,1,2.88-8.6L435.7,459.2a5.093,5.093,0,0,0,3.845-2.873l5.573-11.872A5.1,5.1,0,0,1,454.347,444.453Z" transform="translate(0 2.246)" fill="#ffa000" stroke="#37474f" stroke-linecap="round" stroke-linejoin="round" stroke-width="1"/>
    <path id="Контур_10928" data-name="Контур 10928" d="M454.347,440.453l5.572,11.871a5.1,5.1,0,0,0,3.845,2.873l12.868,1.966a5.1,5.1,0,0,1,2.878,8.6l-9.627,9.868a5.1,5.1,0,0,0-1.382,4.382l2.228,13.66a5.1,5.1,0,0,1-7.5,5.283l-11.031-6.1a5.1,5.1,0,0,0-4.933,0l-11.031,6.1a5.1,5.1,0,0,1-7.5-5.283l2.228-13.66a5.1,5.1,0,0,0-1.384-4.382l-9.627-9.868a5.1,5.1,0,0,1,2.88-8.6L435.7,455.2a5.093,5.093,0,0,0,3.845-2.873l5.573-11.871A5.1,5.1,0,0,1,454.347,440.453Z" transform="translate(0 0)" fill="#ffca28" stroke="#37474f" stroke-linecap="round" stroke-linejoin="round" stroke-width="1"/>
    <path id="Контур_10929" data-name="Контур 10929" d="M421.577,458.72l12.866-1.966a8.208,8.208,0,0,0,6.2-4.633l5.572-11.872" transform="translate(1.728 1.532)" fill="none" stroke="#ffe082" stroke-linecap="round" stroke-linejoin="round" stroke-width="1"/>
    <g id="Сгруппировать_3862" data-name="Сгруппировать 3862" transform="translate(445.293 480.749)">
      <path id="Контур_10930" data-name="Контур 10930" d="M442.94,476.628l11.031,6.1a4.317,4.317,0,0,0,6.349-4.474l-1.376-8.434a6.928,6.928,0,0,0-.539,1.591,6.981,6.981,0,0,0-3.6,1.925,7.3,7.3,0,0,0-.521.583l-6.656-6.656a7.008,7.008,0,0,0-10.4,9.376l.016-.009A5.844,5.844,0,0,1,442.94,476.628Z" transform="translate(-435.657 -465.203)" fill="#ffa000"/>
      <path id="Контур_10931" data-name="Контур 10931" d="M442.934,479,453,484.561a4.317,4.317,0,0,0,6.349-4.474l-.211-1.29a5.914,5.914,0,0,1-.664.545,5.84,5.84,0,0,1-6.231.339l-11.031-6.1a4.272,4.272,0,0,0-3.831-.137Z" transform="translate(-434.688 -460.791)" fill="#f57f17"/>
    </g>
    <rect id="Прямоугольник_6376" data-name="Прямоугольник 6376" width="15.616" height="28.109" rx="2.5" transform="translate(498.624 537.521) rotate(-135)" stroke-width="1" stroke="#37474f" stroke-linecap="round" stroke-linejoin="round" fill="#78909c"/>
    <circle id="Эллипс_748" data-name="Эллипс 748" cx="3.123" cy="3.123" r="3.123" transform="translate(494.451 524.405)" stroke-width="1" stroke="#37474f" stroke-linecap="round" stroke-linejoin="round" fill="#eceff1"/>
    <path id="Контур_10932" data-name="Контур 10932" d="M467.245,464.878a3.9,3.9,0,0,0-.3,5.791,3.9,3.9,0,1,0-5.522,5.522,3.9,3.9,0,1,0-5.52,5.52l-11.6-11.594a3.906,3.906,0,0,0-5.522,0h0a3.9,3.9,0,0,0,0,5.52L455.9,492.755h-7.827a3.885,3.885,0,0,0-3.885,3.885h0a3.885,3.885,0,0,0,3.07,3.8l18.846,4.045a23.323,23.323,0,0,1,3.785,1.154l9.2,3.679,15.458-15.459-2.631-6.579a23.435,23.435,0,0,0-5.185-7.864l-14.109-14.109A4.059,4.059,0,0,0,467.245,464.878Z" transform="translate(10.752 14.898)" fill="#eceff1" stroke="#37474f" stroke-linecap="round" stroke-linejoin="round" stroke-width="1"/>
    <line id="Линия_87" data-name="Линия 87" x2="3.313" y2="3.313" transform="translate(472.176 491.089)" fill="#b0bec5" stroke="#37474f" stroke-linecap="round" stroke-linejoin="round" stroke-width="1"/>
    <line id="Линия_88" data-name="Линия 88" x2="3.313" y2="3.313" transform="translate(477.698 485.568)" fill="#b0bec5" stroke="#37474f" stroke-linecap="round" stroke-linejoin="round" stroke-width="1"/>
    <line id="Линия_89" data-name="Линия 89" x2="3.313" y2="3.313" transform="translate(466.655 496.61)" fill="#b0bec5" stroke="#37474f" stroke-linecap="round" stroke-linejoin="round" stroke-width="1"/>
  </g>
</svg>
