<svg xmlns="http://www.w3.org/2000/svg" width="202.5" height="189.436" viewBox="0 0 202.5 189.436">
  <g id="_4_cook_chef_team_restaurant_cafe_food_lunch" data-name="4 cook, chef, team, restaurant, cafe, food, lunch" transform="translate(-1 -3)">
    <g id="Сгруппировать_4033" data-name="Сгруппировать 4033" transform="translate(1.004 87.915)">
      <path id="Контур_10997" data-name="Контур 10997" d="M4.273,38.8a3.267,3.267,0,0,1-1.466-6.189l6.529-3.266a3.267,3.267,0,0,1,2.923,5.843L5.73,38.452A3.193,3.193,0,0,1,4.273,38.8Z" transform="translate(-1.001 -28.999)" fill="#545c66"/>
    </g>
    <g id="Сгруппировать_4034" data-name="Сгруппировать 4034" transform="translate(1.007 84.65)">
      <path id="Контур_10998" data-name="Контур 10998" d="M10.794,37.8a3.232,3.232,0,0,1-1.457-.343L2.808,34.188a3.267,3.267,0,0,1,2.923-5.843l6.529,3.266A3.265,3.265,0,0,1,10.794,37.8Z" transform="translate(-1.002 -27.999)" fill="#545c66"/>
    </g>
    <g id="Сгруппировать_4035" data-name="Сгруппировать 4035" transform="translate(190.433 87.919)">
      <path id="Контур_10999" data-name="Контур 10999" d="M68.79,38.8a3.232,3.232,0,0,1-1.457-.343L60.8,35.187a3.267,3.267,0,0,1,2.923-5.843l6.529,3.266A3.265,3.265,0,0,1,68.79,38.8Z" transform="translate(-58.999 -29)" fill="#434a54"/>
    </g>
    <g id="Сгруппировать_4036" data-name="Сгруппировать 4036" transform="translate(190.429 84.647)">
      <path id="Контур_11000" data-name="Контур 11000" d="M62.27,37.8A3.267,3.267,0,0,1,60.8,31.61l6.529-3.266a3.267,3.267,0,0,1,2.923,5.843l-6.529,3.266A3.193,3.193,0,0,1,62.27,37.8Z" transform="translate(-58.998 -27.998)" fill="#434a54"/>
    </g>
    <g id="Сгруппировать_4037" data-name="Сгруппировать 4037" transform="translate(98.984 3)">
      <path id="Контур_11001" data-name="Контур 11001" d="M34.266,12.808A3.263,3.263,0,0,1,31,9.542V6.266a3.266,3.266,0,0,1,6.532,0V9.542A3.263,3.263,0,0,1,34.266,12.808Z" transform="translate(-31 -3)" fill="#ccd1d9"/>
    </g>
    <g id="Сгруппировать_4039" data-name="Сгруппировать 4039" transform="translate(1 6.296)">
      <path id="Контур_11002" data-name="Контур 11002" d="M89.566,17.01h3.266a9.806,9.806,0,0,1-9.8,9.8H30.808a9.806,9.806,0,0,1-9.8-9.8H89.566Z" transform="translate(44.345 25.453)" fill="#f5f7fa"/>
      <path id="Контур_11003" data-name="Контур 11003" d="M87.413,36.739v9.73H21.96v-9.73A32.725,32.725,0,0,1,54.687,4.009h.069A32.714,32.714,0,0,1,87.413,36.739Z" transform="translate(46.498 -4.009)" fill="#e6e9ed"/>
      <path id="Контур_11004" data-name="Контур 11004" d="M35.445,4.01h-.069a33.113,33.113,0,0,0-4.9.4A32.691,32.691,0,0,1,58.3,36.737v9.73h9.808v-9.73A32.71,32.71,0,0,0,35.445,4.01Z" transform="translate(65.805 -4.007)" fill="#ccd1d9"/>
      <path id="Контур_11005" data-name="Контур 11005" d="M20.629,42.033l9.8,4.867L20.6,51.8V68.162H1V51.8A9.785,9.785,0,0,1,10.8,42v.033h9.831Z" transform="translate(-1 82.084)" fill="#ccd1d9"/>
      <path id="Контур_11006" data-name="Контур 11006" d="M48.726,31v6.532A22.719,22.719,0,0,1,35.661,58.142a22.623,22.623,0,0,1-19.564,0A22.748,22.748,0,0,1,3,37.532V31Z" transform="translate(3.532 57.156)" fill="#eac6bb"/>
      <path id="Контур_11007" data-name="Контур 11007" d="M28.59,31v6.532A22.719,22.719,0,0,1,15.526,58.142,22.327,22.327,0,0,1,9,60.1a22.871,22.871,0,0,0,3.266.261,22.426,22.426,0,0,0,9.8-2.224A22.715,22.715,0,0,0,35.129,37.532V31H28.59Z" transform="translate(17.129 57.156)" fill="#d3b1a9"/>
      <path id="Контур_11008" data-name="Контур 11008" d="M26.6,39.345v8.783l-9.766,4.867-9.8-4.867H7V39.345l.033-.036a22.623,22.623,0,0,0,19.564,0Z" transform="translate(12.597 75.985)" fill="#eac6bb"/>
      <path id="Контур_11009" data-name="Контур 11009" d="M25.863,22.99A22.846,22.846,0,0,1,48.726,45.853v3.3H3v-3.3A22.867,22.867,0,0,1,25.863,22.99Z" transform="translate(3.532 39.004)" fill="#656d78"/>
      <path id="Контур_11010" data-name="Контур 11010" d="M12.266,22.99A22.442,22.442,0,0,0,9,23.251a22.826,22.826,0,0,1,19.59,22.6v3.3h6.539v-3.3A22.846,22.846,0,0,0,12.266,22.99Z" transform="translate(17.129 39.004)" fill="#545c66"/>
      <path id="Контур_11011" data-name="Контур 11011" d="M46.194,51.8V68.162H7V51.8l9.831-4.9L26.6,42.033h9.8V42A9.785,9.785,0,0,1,46.194,51.8Z" transform="translate(12.597 82.084)" fill="#e6e9ed"/>
      <path id="Контур_11012" data-name="Контур 11012" d="M69.863,22.99A22.846,22.846,0,0,1,92.726,45.853v3.3H47v-3.3A22.867,22.867,0,0,1,69.863,22.99Z" transform="translate(103.242 39.004)" fill="#656d78"/>
      <path id="Контур_11013" data-name="Контур 11013" d="M47.033,31H92.726v6.532h.033a22.748,22.748,0,0,1-13.1,20.609,22.623,22.623,0,0,1-19.564,0A22.715,22.715,0,0,1,47.033,37.532H47V31Z" transform="translate(103.242 57.156)" fill="#eac6bb"/>
      <path id="Контур_11014" data-name="Контур 11014" d="M70.6,39.345v8.786L60.831,53l-9.8-4.867H51V39.345l.033-.036a22.623,22.623,0,0,0,19.564,0Z" transform="translate(112.306 75.985)" fill="#eac6bb"/>
      <path id="Контур_11015" data-name="Контур 11015" d="M90.194,51.8V68.162H51V51.8l9.831-4.9L70.6,42.033h9.8V42A9.785,9.785,0,0,1,90.194,51.8Z" transform="translate(112.306 82.084)" fill="#e6e9ed"/>
      <path id="Контур_11016" data-name="Контур 11016" d="M64.629,42.033l9.8,4.867L64.6,51.8V68.162H45V51.8A9.785,9.785,0,0,1,54.8,42v.033h9.831Z" transform="translate(98.71 82.084)" fill="#ccd1d9"/>
      <path id="Контур_11017" data-name="Контур 11017" d="M81.78,38.01h.033v9.537l-.033.261a29.4,29.4,0,0,1-58.79.163h.033V38.01H81.78Z" transform="translate(48.832 73.042)" fill="#eac6bb"/>
      <path id="Контур_11018" data-name="Контур 11018" d="M64.789,38.01H55.013v9.537l-.033.261A29.406,29.406,0,0,1,38.65,74.137a29.1,29.1,0,0,1-8.162,2.61,29.317,29.317,0,0,0,34.3-28.935l.033-.265V38.01h-.033Z" transform="translate(65.824 73.042)" fill="#d3b1a9"/>
      <path id="Контур_11019" data-name="Контур 11019" d="M41.055,52.14a29.2,29.2,0,0,0,13.065-3.067v9.6l-13.065,4.9v-.033l-13-4.867H27.99v-9.6A29.139,29.139,0,0,0,41.055,52.14Z" transform="translate(60.163 98.105)" fill="#eac6bb"/>
      <path id="Контур_11020" data-name="Контур 11020" d="M72.248,31.565l.033-.033H88.611a9.8,9.8,0,0,1,0,19.6V67.492H29.821V51.129h-.033a9.8,9.8,0,1,1,0-19.6H46.152l.033.033a16.217,16.217,0,0,1,26.064,0Z" transform="translate(42.034 43.559)" fill="#656d78"/>
      <g id="Сгруппировать_4038" data-name="Сгруппировать 4038" transform="translate(78.377 75.092)">
        <path id="Контур_11021" data-name="Контур 11021" d="M47.805,27H38a9.8,9.8,0,0,1,0,19.6V62.96h9.808V46.6a9.8,9.8,0,1,0,0-19.6Z" transform="translate(4.463 -27)" fill="#545c66"/>
        <path id="Контур_11022" data-name="Контур 11022" d="M25.056,27H25l.033.033Z" transform="translate(-24.997 -27)" fill="#545c66"/>
      </g>
      <path id="Контур_11023" data-name="Контур 11023" d="M46.184,52.01l13,4.867v.033L46.152,61.776v19.6h-22.9a3.274,3.274,0,0,1-3.266-3.266V68.341A16.293,16.293,0,0,1,36.321,52.01h9.864Z" transform="translate(42.034 104.767)" fill="#545c66"/>
      <path id="Контур_11024" data-name="Контур 11024" d="M80.225,68.341v9.766a3.276,3.276,0,0,1-3.266,3.266H28v-19.6l13.032-4.867L54.1,52.01h9.8A16.316,16.316,0,0,1,80.225,68.341Z" transform="translate(60.185 104.767)" fill="#656d78"/>
      <path id="Контур_11025" data-name="Контур 11025" d="M72.59,31v6.532A22.719,22.719,0,0,1,59.526,58.142,22.327,22.327,0,0,1,53,60.1a22.871,22.871,0,0,0,3.266.261,22.426,22.426,0,0,0,9.8-2.224A22.715,22.715,0,0,0,79.129,37.532V31H72.59Z" transform="translate(116.839 57.156)" fill="#d3b1a9"/>
      <path id="Контур_11026" data-name="Контур 11026" d="M56.266,22.99A22.442,22.442,0,0,0,53,23.251a22.826,22.826,0,0,1,19.59,22.6v3.3h6.539v-3.3A22.846,22.846,0,0,0,56.266,22.99Z" transform="translate(116.839 39.004)" fill="#545c66"/>
    </g>
    <g id="Сгруппировать_4040" data-name="Сгруппировать 4040" transform="translate(95.79 179.378)">
      <path id="Контур_11027" data-name="Контур 11027" d="M33.3,63.534A3.266,3.266,0,0,1,33.269,57H33.3a3.266,3.266,0,1,1,0,6.532Z" transform="translate(-30.022 -57.002)" fill="#545c66"/>
    </g>
  </g>
</svg>
