<svg xmlns="http://www.w3.org/2000/svg" width="190.171" height="190" viewBox="0 0 190.171 190">
  <g id="_x33_._waiter_x2C__tray_x2C__steam_x2C__restaurant_x2C__cafe_x2C__food" transform="translate(-0.5 -0.529)">
    <g id="Сгруппировать_3887" data-name="Сгруппировать 3887" transform="translate(0.5 0.529)">
      <path id="Контур_10941" data-name="Контур 10941" d="M121.238,45.936V42.917l-7-.664c-9.3,7.969-19.527,12.738-27.711,12.738S68.11,50.222,58.813,42.253l-7,.664v3.019C21.8,67.395.5,61.029.5,88.2V106.3H172.548V88.2C172.548,61.029,151.251,67.395,121.238,45.936Z" transform="translate(-0.5 83.696)" fill="#ccd1d9"/>
      <g id="Сгруппировать_3881" data-name="Сгруппировать 3881" transform="translate(81.496 141.784)">
        <path id="Контур_10942" data-name="Контур 10942" d="M27.5,48.794h0L30.517,47.5Z" transform="translate(-27.498 -47.499)"/>
      </g>
      <g id="Сгруппировать_3882" data-name="Сгруппировать 3882" transform="translate(87.533 141.784)">
        <path id="Контур_10943" data-name="Контур 10943" d="M29.5,47.5l3.019,1.295h0Z" transform="translate(-29.498 -47.499)"/>
      </g>
      <path id="Контур_10944" data-name="Контур 10944" d="M94.241,59.586c-8.331-3.559-18.755-7.694-30.533-16.113,0,0-7.54,42.5-34.708,60.369H94.241Z" transform="translate(57.03 86.158)" fill="#545c66"/>
      <path id="Контур_10945" data-name="Контур 10945" d="M7.383,59.586c8.337-3.559,18.761-7.694,30.533-16.113,0,0,7.546,42.5,34.714,60.369H7.383Z" transform="translate(13.394 86.158)" fill="#545c66"/>
      <path id="Контур_10946" data-name="Контур 10946" d="M17.5,43.475s4.534,42.194,31.7,60.061h6.037A55.67,55.67,0,0,0,68.25,91.4c15.694-19.9,18.679-47.929,18.679-47.929H17.5Z" transform="translate(33.812 86.156)" fill="#ccd1d9"/>
      <path id="Контур_10947" data-name="Контур 10947" d="M52.287,43.473H17.5s4.534,42.5,31.7,60.369h6.1C82.467,85.972,87,43.473,87,43.473Z" transform="translate(33.812 86.158)" fill="#ccd1d9"/>
      <path id="Контур_10948" data-name="Контур 10948" d="M52.244,60.236,17.482,38.158l.048,13.025V54.2l18.112,21.13,16.6-5.85,16.608,5.85L86.958,54.2V51.183l.048-13.025Z" transform="translate(33.78 75.429)" fill="#e6e9ed"/>
      <path id="Контур_10949" data-name="Контур 10949" d="M117.149,36.965V43c0,34.563-32.722,63.39-52.825,63.39a24.751,24.751,0,0,1-3.891-.332C40.262,102.771,11.5,75.4,11.5,43V36.965L24.116,15.292S44.887,23.958,63.9,23.958c18.99,0,40-8.666,40-8.666Z" transform="translate(21.7 29.272)" fill="#f0c7b7"/>
      <path id="Контур_10950" data-name="Контур 10950" d="M92.468,23.392s32.42-4.5,24.964,43.374L104.177,45.093s-21.006,8.666-40,8.666c-19.014,0-39.785-8.666-39.785-8.666L11.778,66.766C4.232-13.739,101.156,1.719,101.156,1.719,86.971,7.545,92.468,23.392,92.468,23.392Z" transform="translate(21.42 -0.529)" fill="#965353"/>
      <g id="Сгруппировать_3883" data-name="Сгруппировать 3883" transform="translate(84.59 152.277)">
        <path id="Контур_10951" data-name="Контур 10951" d="M30.047,53.994a1.523,1.523,0,0,1-1.524-1.509,1.5,1.5,0,0,1,1.491-1.509h.033a1.509,1.509,0,0,1,0,3.019Z" transform="translate(-28.523 -50.975)" fill="#e6e9ed"/>
      </g>
      <g id="Сгруппировать_3884" data-name="Сгруппировать 3884" transform="translate(84.59 164.354)">
        <path id="Контур_10952" data-name="Контур 10952" d="M30.047,57.995a1.523,1.523,0,0,1-1.524-1.509,1.5,1.5,0,0,1,1.491-1.509h.033a1.509,1.509,0,0,1,0,3.019Z" transform="translate(-28.523 -54.976)" fill="#e6e9ed"/>
      </g>
      <g id="Сгруппировать_3885" data-name="Сгруппировать 3885" transform="translate(84.59 176.437)">
        <path id="Контур_10953" data-name="Контур 10953" d="M30.047,62a1.523,1.523,0,0,1-1.524-1.509,1.5,1.5,0,0,1,1.491-1.509h.033a1.509,1.509,0,1,1,0,3.019Z" transform="translate(-28.523 -58.979)" fill="#e6e9ed"/>
      </g>
      <path id="Контур_10954" data-name="Контур 10954" d="M49.53,39.468A4.528,4.528,0,1,1,45,44,4.541,4.541,0,0,1,49.53,39.468Z" transform="translate(89.331 78.074)" fill="#f6bb42"/>
      <path id="Контур_10955" data-name="Контур 10955" d="M78.8,41.969a48.284,48.284,0,0,1,48.3,48.3v15.1H30.5v-15.1a48.262,48.262,0,0,1,48.3-48.3Z" transform="translate(60.062 83.122)" fill="#ffce54"/>
      <g id="Сгруппировать_3886" data-name="Сгруппировать 3886" transform="translate(87.548 186.981)">
        <path id="Контур_10956" data-name="Контур 10956" d="M130.617,65.491h-99.6a1.509,1.509,0,1,1,0-3.019h99.6a1.509,1.509,0,1,1,0,3.019Z" transform="translate(-29.503 -62.472)" fill="#656d78"/>
      </g>
    </g>
  </g>
</svg>
