<svg xmlns="http://www.w3.org/2000/svg" width="127" height="40" viewBox="0 0 127 40">
  <g id="Сгруппировать_4567" data-name="Сгруппировать 4567" transform="translate(-612 -6505)">
    <text id="JQ_Digital" data-name="JQ Digital" transform="translate(662 6531)" fill="#ff3e3e" font-size="18" font-family="Nunito-Regular, Nunito"><tspan x="0" y="0">JQ Digital</tspan></text>
    <g id="Group_1" data-name="Group 1" transform="translate(18304 29006)">
      <circle id="Ellipse_4" data-name="Ellipse 4" cx="20" cy="20" r="20" transform="translate(-17692 -22501)"/>
      <path id="Path_2" data-name="Path 2" d="M397.146,195.751a7.2,7.2,0,0,1-1.374-1.688c-.29-.53-1.049-.31-1.861-.337a13.828,13.828,0,0,1-5.09-.9,9.214,9.214,0,0,1-1.409-.742A9.415,9.415,0,0,1,386.036,191c-.227-.215-.45-.448-.662-.69s-.434-.52-.638-.8-.415-.6-.608-.92-.392-.682-.572-1.046c-.21-.42-.4-.854-.568-1.292s-.309-.87-.431-1.313a14.749,14.749,0,0,1-.475-2.65,15.294,15.294,0,0,1,0-2.621,15.581,15.581,0,0,1,.428-2.518,15.209,15.209,0,0,1,.806-2.34,13.954,13.954,0,0,1,1.134-2.087,11.979,11.979,0,0,1,1.414-1.76,9.739,9.739,0,0,1,1.644-1.36,12.344,12.344,0,0,1,1.5-.847,11.023,11.023,0,0,1,1.5-.584,10.257,10.257,0,0,1,1.486-.337,9.938,9.938,0,0,1,1.461-.108,10.12,10.12,0,0,1,3.24.538,11.137,11.137,0,0,1,2.868,1.466,11.844,11.844,0,0,1,2.33,2.174,11.615,11.615,0,0,1,.912,1.282,10.971,10.971,0,0,1,.715,1.376,16.665,16.665,0,0,1,.62,10.5,12.258,12.258,0,0,1-3.526,5.89,2.108,2.108,0,0,0-.762,2.04,1.494,1.494,0,0,0,.586.782,5.307,5.307,0,0,0,1.172.629,20.124,20.124,0,0,1-2.787,2.56A8.038,8.038,0,0,1,397.146,195.751Zm-9.106-21.927a11.637,11.637,0,0,0,0,13.81,6.68,6.68,0,0,0,10.96,0,11.637,11.637,0,0,0,0-13.81,6.68,6.68,0,0,0-10.96,0Z" transform="translate(-18058.744 -22662.023)" fill="#f2d649" stroke="rgba(0,0,0,0)" stroke-width="1"/>
      <path id="Intersection_2" data-name="Intersection 2" d="M0,21.928a5.74,5.74,0,0,0,1.976.37,4.136,4.136,0,0,0,2.608-.868A4.473,4.473,0,0,0,6.1,18.91a8.465,8.465,0,0,0,.31-2.209V.5A.48.48,0,0,1,6.869,0H9.746a.48.48,0,0,1,.466.494V16.7a13.92,13.92,0,0,1-.125,1.91,10,10,0,0,1-.373,1.666A7.693,7.693,0,0,1,9.1,21.706a6.808,6.808,0,0,1-.4.628,6.573,6.573,0,0,1-.462.571,6.745,6.745,0,0,1-1.106.974,7.92,7.92,0,0,1-1.344.76,10.353,10.353,0,0,1-1.582.549,14.345,14.345,0,0,1-1.814.346A20.022,20.022,0,0,1,0,21.928Z" transform="translate(-17689.785 -22493.77)" fill="#fff"/>
    </g>
  </g>
</svg>
