<svg xmlns="http://www.w3.org/2000/svg" xmlns:xlink="http://www.w3.org/1999/xlink" width="276.722" height="49.68" viewBox="0 0 276.722 49.68">
  <defs>
    <clipPath id="clip-path">
      <path id="Пересечение_1" data-name="Пересечение 1" d="M26.318,38.074a24.315,24.315,0,0,1,23.362-13.5,26.971,26.971,0,0,1-.366,4.664c-.067.382-.149.76-.23,1.139a1.144,1.144,0,0,1-.16.51c-.129.142-.428.087-.6.087-.582,0-1.156.038-1.735.055a14.874,14.874,0,0,0-4.936,1.2A17.284,17.284,0,0,0,31.38,44.419a13.588,13.588,0,0,0-.357,4.5c-.651.134-1.3.316-1.953.418a33.494,33.494,0,0,1-5.153.342A24.241,24.241,0,0,1,26.318,38.074ZM20.61,49.323a24.037,24.037,0,0,1-3.2-.764c-.4-.13-.8-.259-1.193-.408-.141-.054-.344-.095-.432-.229-.12-.182-.014-.534.008-.737.074-.689.192-1.381.327-2.061a34.831,34.831,0,0,1,2.579-8.19,40.586,40.586,0,0,1,3.361-5.911A36.746,36.746,0,0,1,37.64,18.378a38.013,38.013,0,0,1,7.593-2.291c.648-.129,1.3-.225,1.952-.318.192-.027.56-.134.737-.033.148.085.2.333.256.482.147.413.28.832.417,1.248a19.137,19.137,0,0,1,1.031,5.8c-1.142,0-2.272-.074-3.417,0a25.369,25.369,0,0,0-6.942,1.517A25.807,25.807,0,0,0,23.883,40.677a27.815,27.815,0,0,0-1.319,7.593c-.019.436.052.866.052,1.3A11.618,11.618,0,0,1,20.61,49.323Zm12.456-6.26a15.862,15.862,0,0,1,9.455-9.814,17.147,17.147,0,0,1,6.02-.979,8.075,8.075,0,0,1-.586,1.736,26.439,26.439,0,0,1-1.638,3.363,24.553,24.553,0,0,1-10.2,9.613,17.87,17.87,0,0,1-3.851,1.559A17.321,17.321,0,0,1,33.066,43.063ZM11.715,45.948c-.27-.165-.767-.382-.92-.667a.8.8,0,0,1-.01-.483c.037-.307.078-.614.107-.922a21.787,21.787,0,0,0,.062-2.983,24.085,24.085,0,0,0-1.745-7.81A22.292,22.292,0,0,0,3.8,25.17a25.911,25.911,0,0,0-2.278-1.917c-.285-.21-.573-.421-.868-.617A1.773,1.773,0,0,1,.2,22.316c-.117-.154-.042-.444-.019-.622.053-.417.126-.832.2-1.247a1.927,1.927,0,0,1,.141-.633c.1-.172.455-.08.623-.067.612.045,1.23.15,1.844.158a64.515,64.515,0,0,0,7.7-.171,47.727,47.727,0,0,0,20.772-7.35,42.254,42.254,0,0,0,6.291-4.9c.564-.539,1.129-1.073,1.681-1.625.149-.149.43-.577.656-.587s.49.3.646.429c.521.433,1.03.886,1.519,1.354a23.318,23.318,0,0,1,4.083,5.259,7.716,7.716,0,0,1,1.07,2.17,17.5,17.5,0,0,0-3.525.574,37.716,37.716,0,0,0-6.888,2.224A38.133,38.133,0,0,0,16.627,38.616a36.551,36.551,0,0,0-1.79,6.4,15.656,15.656,0,0,0-.357,2.387A12.173,12.173,0,0,1,11.715,45.948ZM8.244,43.343a23.672,23.672,0,0,1-2.82-2.991A24.468,24.468,0,0,1,.349,29.125,33.51,33.51,0,0,1,0,23.755a8.254,8.254,0,0,1,1.356.965A21.014,21.014,0,0,1,4.13,27.335a21.813,21.813,0,0,1,5.406,12.04,26.944,26.944,0,0,1,.115,3.8c-.018.4-.1.794-.106,1.193A5.732,5.732,0,0,1,8.244,43.343ZM49.626,23.267ZM3.579,18.655c-.923-.04-1.843-.175-2.766-.215A21.914,21.914,0,0,1,2.7,13.5c.2-.387.417-.763.633-1.139.081-.14.162-.35.314-.427a.862.862,0,0,1,.477.008c.342.049.686.105,1.03.139a34.646,34.646,0,0,0,3.742.172A31.351,31.351,0,0,0,18.928,10.43a31.848,31.848,0,0,0,9.491-5.365,39.286,39.286,0,0,0,2.875-2.679c.261-.262.5-.538.75-.813.112-.125.223-.3.389-.36a.793.793,0,0,1,.487.092c.38.139.765.269,1.139.423a29.41,29.41,0,0,1,3.417,1.681,5.449,5.449,0,0,1,1.39.9c.178.212-.111.427-.251.568-.446.449-.881.922-1.356,1.34a59.488,59.488,0,0,1-6.346,5.005,45.235,45.235,0,0,1-20.555,7.258c-1.525.146-3.062.218-4.6.218Q4.67,18.7,3.579,18.655Zm2.549-7.8a10.2,10.2,0,0,1-1.681-.168A7.773,7.773,0,0,1,5.708,8.949,23.458,23.458,0,0,1,9.329,5.4,25.616,25.616,0,0,1,20.447.35,24.986,24.986,0,0,1,25.057,0a27.117,27.117,0,0,1,3.851.31,10.131,10.131,0,0,1,2.115.45A7.119,7.119,0,0,1,29.5,2.391a33.925,33.925,0,0,1-3.8,3.142A30.446,30.446,0,0,1,9.654,10.9c-.432.019-.859.028-1.286.028C7.623,10.931,6.882,10.9,6.129,10.852Z" transform="translate(0 0)" fill="none"/>
    </clipPath>
    <clipPath id="clip-path-2">
      <path id="Пересечение_3" data-name="Пересечение 3" d="M22.561,27.365a4.066,4.066,0,0,1-1.332-2.545l-.016-.064,2.07-.416.016.08a2.712,2.712,0,0,0,.433,1.36,2,2,0,0,0,1.653.736,2.038,2.038,0,0,0,1.428-.528,1.765,1.765,0,0,0,.562-1.344v-.152a.767.767,0,0,0-.016-.152,2.208,2.208,0,0,1,.241.5.718.718,0,0,1,.032.192,1.182,1.182,0,0,0-.024-.656,1.789,1.789,0,0,0-.3-.544,2.1,2.1,0,0,0-.417-.4q-.225-.16-.369-.256l-.1-.048a7.19,7.19,0,0,0-.8-.384l-1.2-.464q-2.632-1.008-2.631-2.993a2.77,2.77,0,0,1,1.107-2.24,4.26,4.26,0,0,1,2.744-.9,3.874,3.874,0,0,1,3.466,1.985l.048.048-1.685.912-.032-.064a2.455,2.455,0,0,0-.8-.864,1.893,1.893,0,0,0-1.011-.224,2.014,2.014,0,0,0-1.268.384,1.2,1.2,0,0,0-.481.976v.128a1.264,1.264,0,0,1-.217-.392,1.935,1.935,0,0,1-.072-.312.838.838,0,0,1,.016-.288,1.126,1.126,0,0,0-.064.688,1.511,1.511,0,0,0,.249.528,1.9,1.9,0,0,0,.369.376,2.224,2.224,0,0,0,.329.216,3.605,3.605,0,0,0,.706.352l1.252.464a5.633,5.633,0,0,1,2.279,1.408,3.077,3.077,0,0,1,.722,2.064,3.474,3.474,0,0,1-1.171,2.673,4.241,4.241,0,0,1-2.953,1.072A4.118,4.118,0,0,1,22.561,27.365Zm-21.116,0A4.065,4.065,0,0,1,.112,24.821L.1,24.757l2.07-.416.016.08a2.713,2.713,0,0,0,.433,1.36,2.005,2.005,0,0,0,1.653.736A2.038,2.038,0,0,0,5.7,25.989a1.765,1.765,0,0,0,.562-1.344v-.152a.781.781,0,0,0-.016-.152,2.2,2.2,0,0,1,.24.5.717.717,0,0,1,.032.192,1.181,1.181,0,0,0-.024-.656,1.79,1.79,0,0,0-.3-.544,2.089,2.089,0,0,0-.417-.4q-.224-.16-.369-.256l-.1-.048a7.171,7.171,0,0,0-.8-.384l-1.2-.464Q.674,21.268.674,19.284a2.77,2.77,0,0,1,1.107-2.24,4.26,4.26,0,0,1,2.744-.9,3.874,3.874,0,0,1,3.466,1.985l.048.048-1.685.912-.032-.064a2.455,2.455,0,0,0-.8-.864,1.893,1.893,0,0,0-1.011-.224,2.015,2.015,0,0,0-1.268.384,1.2,1.2,0,0,0-.481.976v.128a1.257,1.257,0,0,1-.217-.392,1.924,1.924,0,0,1-.072-.312.841.841,0,0,1,.016-.288,1.126,1.126,0,0,0-.064.688,1.508,1.508,0,0,0,.249.528,1.9,1.9,0,0,0,.369.376,2.216,2.216,0,0,0,.329.216,3.609,3.609,0,0,0,.706.352l1.252.464a5.632,5.632,0,0,1,2.279,1.408,3.077,3.077,0,0,1,.722,2.064,3.474,3.474,0,0,1-1.171,2.673A4.241,4.241,0,0,1,4.2,28.278,4.118,4.118,0,0,1,1.444,27.365Zm9.547-.448A4.051,4.051,0,0,1,9.74,23.861V16.371h2.038V22.42h.016l-.016.016v.336a3.475,3.475,0,0,0,.032.44q.032.248.1.528a3.045,3.045,0,0,0,.185.552,1.968,1.968,0,0,0,.3.48.644.644,0,0,1-.161-.1,2.291,2.291,0,0,1-.369-.4q-.08-.112-.161-.248a3.351,3.351,0,0,1-.16-.312,4.071,4.071,0,0,0,.441,1.328,3.153,3.153,0,0,0,.626.8,2.1,2.1,0,0,0,.626.4,3.179,3.179,0,0,0,.457.144,2.923,2.923,0,0,0,.77.1,3.042,3.042,0,0,0,.77-.1,3.176,3.176,0,0,0,.457-.144,2.019,2.019,0,0,0,.618-.4.014.014,0,0,0,.016-.016.028.028,0,0,0,.032-.032.2.2,0,0,0,.1-.1h.016l.064-.064a3.286,3.286,0,0,0,.5-.768,4.6,4.6,0,0,0,.353-1.152,2.494,2.494,0,0,1-.321.56,2.3,2.3,0,0,1-.369.4.644.644,0,0,1-.161.1,1.907,1.907,0,0,0,.329-.536,3.528,3.528,0,0,0,.185-.6,3.907,3.907,0,0,0,.08-.568q.016-.264.016-.44V16.371h2.038v7.489a4.052,4.052,0,0,1-1.252,3.057,4.868,4.868,0,0,1-3.466,1.328A4.868,4.868,0,0,1,10.991,26.917ZM42.907,28.1V16.371H44.96V28.1Zm-4.284,0V22.692h-5.3V28.1H31.273V16.371h2.054v4.353l-.963.192h7.2l-.947-.192V16.371h2.054V28.1Zm-28.5-16.739A4.065,4.065,0,0,1,8.793,8.818l-.016-.064,2.07-.416.016.08a2.713,2.713,0,0,0,.433,1.36,2.005,2.005,0,0,0,1.653.736,2.037,2.037,0,0,0,1.428-.528,1.764,1.764,0,0,0,.562-1.344V8.49a.783.783,0,0,0-.016-.152,2.21,2.21,0,0,1,.241.5.718.718,0,0,1,.032.192,1.178,1.178,0,0,0-.024-.656,1.785,1.785,0,0,0-.3-.544,2.092,2.092,0,0,0-.417-.4q-.225-.16-.369-.256l-.1-.048a7.215,7.215,0,0,0-.8-.384l-1.2-.464Q9.355,5.265,9.355,3.28a2.77,2.77,0,0,1,1.107-2.24,4.261,4.261,0,0,1,2.744-.9,3.875,3.875,0,0,1,3.466,1.984l.048.048-1.685.912L15,3.024a2.454,2.454,0,0,0-.8-.864,1.892,1.892,0,0,0-1.011-.224,2.013,2.013,0,0,0-1.268.384,1.2,1.2,0,0,0-.482.976v.128a1.266,1.266,0,0,1-.217-.392,1.937,1.937,0,0,1-.072-.312.841.841,0,0,1,.016-.288,1.125,1.125,0,0,0-.064.688,1.512,1.512,0,0,0,.249.528,1.907,1.907,0,0,0,.369.376,2.245,2.245,0,0,0,.329.216,3.619,3.619,0,0,0,.706.352l1.251.464a5.627,5.627,0,0,1,2.279,1.408,3.076,3.076,0,0,1,.722,2.064A3.474,3.474,0,0,1,15.837,11.2a4.241,4.241,0,0,1-2.952,1.072A4.117,4.117,0,0,1,10.125,11.362ZM59.674,6.241l-.786-1.456.433,1.392L58.038,12.1H55.855l.016-.08L58.648.272l4.493,8.4,4.637-8.4L70.3,12.1H68.131L66.991,6.225l.449-1.44-.546.992-3.8,6.465ZM31.738,4.561l-.786-.8.786,1.2V12.1H29.8V.24l8.28,7.842.85.832-.85-1.248V.368h1.942V12.242ZM19.672,10.914a4.052,4.052,0,0,1-1.252-3.057V.368h2.038V6.417h.016l-.016.016v.336a3.484,3.484,0,0,0,.032.44q.032.248.1.528a3.032,3.032,0,0,0,.185.552,1.961,1.961,0,0,0,.3.48.635.635,0,0,1-.16-.1,2.294,2.294,0,0,1-.369-.4q-.08-.112-.16-.248a3.354,3.354,0,0,1-.16-.312,4.073,4.073,0,0,0,.441,1.328,3.159,3.159,0,0,0,.626.8,2.109,2.109,0,0,0,.626.4,3.19,3.19,0,0,0,.457.144,2.932,2.932,0,0,0,.77.1,3.049,3.049,0,0,0,.77-.1,3.189,3.189,0,0,0,.457-.144,2.017,2.017,0,0,0,.618-.4A.014.014,0,0,0,25,9.826a.028.028,0,0,0,.032-.032.2.2,0,0,0,.1-.1h.016l.064-.064a3.294,3.294,0,0,0,.5-.768,4.6,4.6,0,0,0,.353-1.152,2.5,2.5,0,0,1-.321.56,2.3,2.3,0,0,1-.369.4.641.641,0,0,1-.16.1,1.9,1.9,0,0,0,.329-.536,3.519,3.519,0,0,0,.184-.6,3.906,3.906,0,0,0,.08-.568q.016-.264.016-.44V.368h2.038v7.49A4.051,4.051,0,0,1,26.6,10.914a4.869,4.869,0,0,1-3.466,1.328A4.869,4.869,0,0,1,19.672,10.914ZM72.447,12.1V.368h2.039V12.1Zm-20.619,0L49.854,8.081a4.879,4.879,0,0,1,.554-.128,2.23,2.23,0,0,1,.522-.032,3.173,3.173,0,0,0-.337-.048q-.16-.016-.369-.024a2.9,2.9,0,0,0-.465.024l-.016.016a1.352,1.352,0,0,0-.241.032,9.757,9.757,0,0,0-2.639.848,12.714,12.714,0,0,0-1.934,1.168L43.805,12.1H41.591L47.945,0l3.626,7.153a9.655,9.655,0,0,1,1.059.256q.465.144.786.272a5.455,5.455,0,0,1,.658.32,9.793,9.793,0,0,0-1.131-.184q-.554-.056-1.067-.072l2.2,4.353ZM47.9,4.145,46.26,7.313a3.123,3.123,0,0,0-.489.3,3.247,3.247,0,0,0-.329.28,1.415,1.415,0,0,0-.241.3,1.925,1.925,0,0,1,.417-.312,4.75,4.75,0,0,1,.466-.232H46.1a10.241,10.241,0,0,1,1.693-.464,11.746,11.746,0,0,1,1.532-.176h.016l-1.428-2.9ZM2.9,12.1V2.144H0V.368H7.862V2.144h-2.9V2.16H3.819l1.139.224V12.1Z" fill="#2a2a2a"/>
    </clipPath>
  </defs>
  <g id="Сгруппировать_4419" data-name="Сгруппировать 4419" transform="translate(-379.073 -66.16)">
    <text id="_" data-name="&amp;" transform="translate(493.596 96.04)" fill="#2a2a2a" font-size="18" font-family="Nunito-Regular, Nunito"><tspan x="0" y="0">&amp;</tspan></text>
    <g id="Сгруппировать_3945" data-name="Сгруппировать 3945">
      <g id="Group" transform="translate(428.793 74.344)">
        <path id="PRONTO-PIZZA" d="M698.991,112.126a4.863,4.863,0,0,1,1.832.295,2.652,2.652,0,0,1,1.137.852,3.271,3.271,0,0,1,.579,1.368,9.68,9.68,0,0,1,.158,1.841,9.534,9.534,0,0,1-.147,1.725,3.507,3.507,0,0,1-.569,1.4,2.788,2.788,0,0,1-1.169.936,4.785,4.785,0,0,1-1.948.337h-1.2v5.892H696V112.126Zm-1.327,7.2H698.8a2.678,2.678,0,0,0,1.211-.231,1.744,1.744,0,0,0,.7-.61,2.1,2.1,0,0,0,.305-.884,8.654,8.654,0,0,0,.063-1.073,8.022,8.022,0,0,0-.074-1.115,2.427,2.427,0,0,0-.305-.915,1.586,1.586,0,0,0-.674-.61,2.657,2.657,0,0,0-1.179-.221h-1.18Zm11.984,7.449-2.085-6.418h-1.58v6.418H704.32V112.126h3.222a3.2,3.2,0,0,1,2.633,1.031,4.89,4.89,0,0,1,.842,3.135,6.086,6.086,0,0,1-.379,2.23,2.774,2.774,0,0,1-1.516,1.494l2.233,6.754Zm-.316-10.479a6.289,6.289,0,0,0-.084-1.073,2.043,2.043,0,0,0-.326-.831,1.6,1.6,0,0,0-.642-.537,2.423,2.423,0,0,0-1.032-.189h-1.264v5.155h1.411a2.218,2.218,0,0,0,.948-.179,1.433,1.433,0,0,0,.6-.515,2.135,2.135,0,0,0,.305-.8A5.787,5.787,0,0,0,709.332,116.293Zm10.32,6.544a5.091,5.091,0,0,1-.769,3.019,3.019,3.019,0,0,1-2.622,1.063,3.073,3.073,0,0,1-2.58-.989,4.135,4.135,0,0,1-.769-2.609V116.1a8.269,8.269,0,0,1,.137-1.515,3.67,3.67,0,0,1,.505-1.315,2.665,2.665,0,0,1,1.022-.926,3.63,3.63,0,0,1,1.706-.347,4.256,4.256,0,0,1,1.759.305,2.366,2.366,0,0,1,1.021.852,3.23,3.23,0,0,1,.474,1.284,10.472,10.472,0,0,1,.116,1.62Zm-1.664-7.049a5.974,5.974,0,0,0-.053-.779,2.195,2.195,0,0,0-.221-.726,1.421,1.421,0,0,0-.516-.547,1.687,1.687,0,0,0-.916-.221,1.4,1.4,0,0,0-.969.305,1.94,1.94,0,0,0-.505.726,2.913,2.913,0,0,0-.2.894q-.031.474-.031.789v7.112a3.886,3.886,0,0,0,.063.673,1.961,1.961,0,0,0,.253.673,1.513,1.513,0,0,0,.516.516,1.9,1.9,0,0,0,1.717-.011,1.539,1.539,0,0,0,.527-.537,2.243,2.243,0,0,0,.263-.747,4.991,4.991,0,0,0,.074-.863Zm5.371.968v10.016H721.7V112.126h1.58l3.033,7.428,1.011,2.672.084-.021V112.126h1.664v14.645h-1.559l-3.033-7.365-1.053-2.651Zm10.973-3.114v13.13h-1.685v-13.13h-2.485v-1.515h6.656v1.515Zm10.257,9.2a5.091,5.091,0,0,1-.769,3.019,3.019,3.019,0,0,1-2.622,1.063,3.073,3.073,0,0,1-2.58-.989,4.135,4.135,0,0,1-.769-2.609V116.1a8.279,8.279,0,0,1,.137-1.515,3.67,3.67,0,0,1,.506-1.315,2.666,2.666,0,0,1,1.021-.926A3.631,3.631,0,0,1,741.22,112a4.257,4.257,0,0,1,1.759.305,2.365,2.365,0,0,1,1.021.852,3.226,3.226,0,0,1,.474,1.284,10.464,10.464,0,0,1,.116,1.62Zm-1.664-7.049a5.964,5.964,0,0,0-.053-.779,2.2,2.2,0,0,0-.221-.726,1.423,1.423,0,0,0-.516-.547,1.687,1.687,0,0,0-.916-.221,1.4,1.4,0,0,0-.969.305,1.939,1.939,0,0,0-.505.726,2.9,2.9,0,0,0-.2.894q-.032.474-.032.789v7.112a3.892,3.892,0,0,0,.063.673,1.959,1.959,0,0,0,.253.673,1.512,1.512,0,0,0,.516.516,1.9,1.9,0,0,0,1.717-.011,1.539,1.539,0,0,0,.527-.537,2.244,2.244,0,0,0,.263-.747,4.985,4.985,0,0,0,.074-.863Zm-43.935,17.38a4.861,4.861,0,0,1,1.832.295,2.652,2.652,0,0,1,1.137.852,3.271,3.271,0,0,1,.579,1.368,9.68,9.68,0,0,1,.158,1.841,9.535,9.535,0,0,1-.147,1.725,3.506,3.506,0,0,1-.569,1.4,2.787,2.787,0,0,1-1.169.936,4.786,4.786,0,0,1-1.948.337h-1.2v5.892H696V133.168Zm-1.327,7.2H698.8a2.678,2.678,0,0,0,1.211-.231,1.744,1.744,0,0,0,.7-.61,2.1,2.1,0,0,0,.305-.884,8.655,8.655,0,0,0,.063-1.073A8.023,8.023,0,0,0,701,136.45a2.427,2.427,0,0,0-.305-.915,1.586,1.586,0,0,0-.674-.61,2.657,2.657,0,0,0-1.179-.221h-1.18Zm6.719,7.449V133.168h1.685v14.645Zm9.225-13.13L709.374,146.3h4.212v1.515h-5.918V146.3l4.276-11.615h-4.065v-1.515h5.729Zm6.761,0L716.135,146.3h4.212v1.515h-5.919V146.3l4.276-11.615H714.64v-1.515h5.729Zm6.866,13.13-.674-3.261H723.3l-.653,3.261h-1.6l3.117-14.645h1.559l3.159,14.645Zm-2.359-11.657-.611,3.409-.7,3.43h2.7l-.716-3.472-.59-3.367Z" transform="translate(-696 -112)" fill="#2a2a2a"/>
      </g>
      <g id="Group-2" data-name="Group" transform="translate(379.073 68.805)">
        <path id="Path" d="M378.864,244.446l8.038,4.611a2.246,2.246,0,0,1,0,3.9l-8.038,4.6A2.246,2.246,0,0,1,375.5,255.6v-9.21a2.246,2.246,0,0,1,3.364-1.948Z" transform="translate(-348.55 -228.163)" fill="#4fb046"/>
        <path id="Path-2" data-name="Path" d="M276.863,300.446l8.038,4.611a2.246,2.246,0,0,1,0,3.9l-8.038,4.6A2.246,2.246,0,0,1,273.5,311.6v-9.21a2.246,2.246,0,0,1,3.363-1.948Z" transform="translate(-260.025 -276.765)" fill="#4fb046"/>
        <path id="Path-3" data-name="Path" d="M174.863,358.446l8.038,4.612a2.246,2.246,0,0,1,0,3.9l-8.038,4.6A2.246,2.246,0,0,1,171.5,369.6v-9.21a2.246,2.246,0,0,1,3.363-1.948Z" transform="translate(-171.5 -327.103)" fill="#4fb046"/>
        <path id="Path-4" data-name="Path" d="M174.863,240.446l8.038,4.611a2.246,2.246,0,0,1,0,3.9l-8.038,4.6A2.246,2.246,0,0,1,171.5,251.6v-9.21a2.246,2.246,0,0,1,3.363-1.948Z" transform="translate(-171.5 -224.691)" fill="#4fb046"/>
        <path id="Path-5" data-name="Path" d="M174.863,123.446l8.038,4.611a2.246,2.246,0,0,1,0,3.9l-8.038,4.6A2.246,2.246,0,0,1,171.5,134.6v-9.21a2.246,2.246,0,0,1,3.363-1.948Z" transform="translate(-171.5 -123.148)" fill="#4fb046"/>
        <path id="Path-6" data-name="Path" d="M276.863,183.446l8.038,4.612a2.246,2.246,0,0,1,0,3.9l-8.038,4.6A2.246,2.246,0,0,1,273.5,194.6v-9.21a2.246,2.246,0,0,1,3.363-1.948Z" transform="translate(-260.025 -175.222)" fill="#ff3e3e"/>
      </g>
    </g>
    <g id="Сгруппировать_3563" data-name="Сгруппировать 3563" transform="translate(522.76 66.16)">
      <g id="Сгруппировать_3560" data-name="Сгруппировать 3560" transform="translate(0 0)">
        <g id="Сгруппировать_3559" data-name="Сгруппировать 3559" transform="translate(0 0)" clip-path="url(#clip-path)">
          <rect id="Прямоугольник_6061" data-name="Прямоугольник 6061" width="51.174" height="51.174" transform="translate(-0.701 -0.793)" fill="#fd7e62"/>
        </g>
      </g>
      <g id="Сгруппировать_3562" data-name="Сгруппировать 3562" transform="translate(58.549 10.514)">
        <g id="Сгруппировать_3561" data-name="Сгруппировать 3561" transform="translate(0)" clip-path="url(#clip-path-2)">
          <rect id="Прямоугольник_6063" data-name="Прямоугольник 6063" width="76.411" height="30.845" transform="translate(-1.066 -1.493)" fill="#2a2a2a"/>
        </g>
      </g>
    </g>
  </g>
</svg>
