<svg xmlns="http://www.w3.org/2000/svg" width="149.167" height="192" viewBox="0 0 149.167 192">
  <g id="okay" transform="translate(-7.025)">
    <path id="Контур_10934" data-name="Контур 10934" d="M118.767,28.089c-3.941-.91-7.883,1.819-9.1,5.76L99.061,72.656l6.367-50.933a7.763,7.763,0,0,0-5.76-8.792c-4.548-.91-8.792,2.122-9.1,6.367L85.721,57.5,82.386,8.079A8.118,8.118,0,0,0,75.11.5a7.721,7.721,0,0,0-7.883,8.186l4.244,63.06a37.449,37.449,0,0,0-8.186-5.154,31.1,31.1,0,0,0-23.344,0A29.266,29.266,0,0,0,23.873,82.357a7.857,7.857,0,0,0,3.032,10.308,7.508,7.508,0,0,0,10.611-3.638,15.909,15.909,0,0,1,5.154-6.67,14.71,14.71,0,0,1,14.856-1.819,15.447,15.447,0,0,1,8.186,8.186,15.161,15.161,0,0,1,0,11.521,15.52,15.52,0,0,1-13.643,9.4h-.606a16.278,16.278,0,0,1-10-3.638,20.284,20.284,0,0,1-4.244-5.76A7.4,7.4,0,0,0,26.6,96.91c-3.638,2.122-4.548,6.367-3.032,10.308a30.276,30.276,0,0,0,16.068,15.765c.606.3,1.213.3,1.516.606a15.04,15.04,0,0,1,10,14.249v17.887h52.752V110.249l20.01-72.156C125.74,33.243,123.011,29,118.767,28.089Z" transform="translate(31.174 0)" fill="#eceff1" stroke="#37474f" stroke-linecap="round" stroke-linejoin="round" stroke-miterlimit="10" stroke-width="1"/>
    <path id="Контур_10935" data-name="Контур 10935" d="M25.1,37.749a23.265,23.265,0,0,1,12.733-12.43,24.705,24.705,0,0,1,9.4-1.819,25.871,25.871,0,0,1,9.4,1.819A29.711,29.711,0,0,1,63.3,29.26" transform="translate(35.708 46.73)" fill="none" stroke="#fff" stroke-linecap="round" stroke-linejoin="round" stroke-miterlimit="10" stroke-width="1"/>
    <path id="Контур_10936" data-name="Контур 10936" d="M44.694,21.975l6.973-2.425a3.05,3.05,0,0,0,0-5.76l-6.973-2.425a2.733,2.733,0,0,1-1.819-1.819L40.449,2.571a3.05,3.05,0,0,0-5.76,0L32.264,9.544c0,.91-.91,1.516-1.819,1.819l-6.973,2.425a3.05,3.05,0,0,0,0,5.76l6.973,2.425a2.733,2.733,0,0,1,1.819,1.819l2.425,6.973a3.05,3.05,0,0,0,5.76,0l2.425-6.973A2.733,2.733,0,0,1,44.694,21.975Z" transform="translate(28.241 0.051)" fill="#ffca28" stroke="#37474f" stroke-linecap="round" stroke-linejoin="round" stroke-miterlimit="10" stroke-width="1"/>
    <path id="Контур_10937" data-name="Контур 10937" d="M40.192,41.773l12.733-4.244a3.05,3.05,0,0,0,0-5.76L40.192,27.524A2.733,2.733,0,0,1,38.373,25.7L34.129,12.971a3.05,3.05,0,0,0-5.76,0L24.124,25.7A2.733,2.733,0,0,1,22.3,27.524L9.571,31.768a3.05,3.05,0,0,0,0,5.76L22.3,41.773a2.733,2.733,0,0,1,1.819,1.819l4.244,12.733a3.05,3.05,0,0,0,5.76,0l4.244-12.733A2.733,2.733,0,0,1,40.192,41.773Z" transform="translate(0 21.181)" fill="#ffca28" stroke="#37474f" stroke-linecap="round" stroke-linejoin="round" stroke-miterlimit="10" stroke-width="1"/>
    <path id="Контур_10938" data-name="Контур 10938" d="M11.7,25.714,15.641,24.5a9.081,9.081,0,0,0,5.76-5.76L22.614,14.8" transform="translate(8.483 29.054)" fill="none" stroke="#ffe082" stroke-linecap="round" stroke-linejoin="round" stroke-miterlimit="10" stroke-width="1"/>
    <line id="Линия_91" data-name="Линия 91" x1="0.91" y1="15.462" transform="translate(116.895 57.194)" fill="none" stroke="#37474f" stroke-linecap="round" stroke-linejoin="round" stroke-miterlimit="10" stroke-width="1"/>
    <path id="Контур_10939" data-name="Контур 10939" d="M101.862,68.238V53.079A7.506,7.506,0,0,0,94.283,45.5h-57.6A7.506,7.506,0,0,0,29.1,53.079V68.238a7.506,7.506,0,0,0,7.579,7.579h57.6A7.506,7.506,0,0,0,101.862,68.238Z" transform="translate(43.835 91.429)" fill="#78909c" stroke="#37474f" stroke-linecap="round" stroke-linejoin="round" stroke-miterlimit="10" stroke-width="1"/>
    <circle id="Эллипс_749" data-name="Эллипс 749" cx="6.063" cy="6.063" r="6.063" transform="translate(82.03 146.024)" stroke-width="1" stroke="#37474f" stroke-linecap="round" stroke-linejoin="round" stroke-miterlimit="10" fill="#26c6da"/>
    <path id="Контур_10940" data-name="Контур 10940" d="M86.671,72.175V55.5H32.1V72.175a7.506,7.506,0,0,0,7.579,7.579H79.092A7.506,7.506,0,0,0,86.671,72.175Z" transform="translate(49.93 111.746)" fill="#26c6da" stroke="#37474f" stroke-linecap="round" stroke-linejoin="round" stroke-miterlimit="10" stroke-width="1"/>
  </g>
</svg>
