<svg xmlns="http://www.w3.org/2000/svg" width="149.99" height="134.828" viewBox="0 0 149.99 134.828">
  <g id="Сгруппировать_3683" data-name="Сгруппировать 3683" transform="translate(-782.722 436.075)">
    <path id="Контур_10845" data-name="Контур 10845" d="M809.739-259.534l2.628,1.065-.754-2.734,1.825-2.171-2.833-.128-1.5-2.406-1,2.655-2.752.684,2.216,1.769-.2,2.829Z" transform="translate(-7.52 -56.532)" fill="#f2eed1" opacity="0.7"/>
    <path id="Контур_10846" data-name="Контур 10846" d="M792.233-380.623l2.51,1.32-.479-2.795,2.03-1.979-2.806-.408-1.255-2.543-1.255,2.543-2.806.408,2.03,1.979-.479,2.795Z" transform="translate(-1.811 -16.294)" fill="#f2eed1"/>
    <path id="Контур_10847" data-name="Контур 10847" d="M1002.893-386.179l1.375.723-.263-1.531,1.112-1.084-1.537-.223-.687-1.393-.687,1.393-1.537.223,1.112,1.084-.263,1.531Z" transform="translate(-72.406 -15.41)" fill="#f2eed1" opacity="0.74"/>
    <path id="Контур_10848" data-name="Контур 10848" d="M949.84-244.419l1.375.723-.262-1.531,1.112-1.084-1.537-.223-.687-1.393-.687,1.393-1.537.223,1.112,1.084-.263,1.531Z" transform="translate(-54.781 -62.506)" fill="#f2eed1" opacity="0.74"/>
    <path id="Контур_10849" data-name="Контур 10849" d="M802.536-424.78l1.364.746-1.364.746-.746,1.364-.746-1.364-1.364-.746,1.364-.746.746-1.364Z" transform="translate(-5.634 -3.299)" fill="#f2eed1" opacity="0.3"/>
    <path id="Контур_10850" data-name="Контур 10850" d="M1003.7-305.2l1.364.746-1.364.746-.746,1.364-.746-1.364-1.364-.746,1.364-.746.746-1.364Z" transform="translate(-72.463 -43.026)" fill="#f2eed1" opacity="0.3"/>
    <path id="Контур_10851" data-name="Контур 10851" d="M854.621-239.126l1.364.746-1.364.746-.746,1.364-.746-1.364-1.364-.746,1.364-.746.746-1.364Z" transform="translate(-22.937 -64.977)" fill="#f2eed1" opacity="0.3"/>
    <path id="Контур_10852" data-name="Контур 10852" d="M906.389-434.71l1.364.746-1.364.746-.746,1.364-.746-1.364-1.364-.746,1.364-.746.746-1.364Z" transform="translate(-40.136 0)" fill="#f2eed1" opacity="0.3"/>
    <path id="Контур_10853" data-name="Контур 10853" d="M836.365-431.55l1.364.746-1.364.746-.746,1.364-.746-1.364-1.364-.746,1.364-.746.746-1.364Z" transform="translate(-16.872 -1.05)" fill="#f2eed1" opacity="0.3"/>
    <path id="Контур_10854" data-name="Контур 10854" d="M785.578-307.156l1.364.746-1.364.746-.746,1.364-.746-1.364-1.364-.746,1.364-.746.746-1.364Z" transform="translate(0 -42.376)" fill="#f2eed1" opacity="0.3"/>
    <path id="Контур_10855" data-name="Контур 10855" d="M996.424-348.113l1.364.746-1.364.746-.746,1.364-.746-1.364-1.364-.746,1.364-.746.746-1.364Z" transform="translate(-70.047 -28.769)" fill="#f2eed1" opacity="0.3"/>
    <path id="Контур_10856" data-name="Контур 10856" d="M822.36-338.357l-2.607,1.371.5-2.9-2.109-2.056,2.915-.423,1.3-2.641,1.3,2.641,2.915.423-2.109,2.056.5,2.9Z" transform="translate(-11.767 -30.253)" fill="#f2eed1" opacity="0.3"/>
    <path id="Контур_10857" data-name="Контур 10857" d="M988.313-260.887l-2.607,1.371.5-2.9-2.109-2.056,2.915-.423,1.3-2.641,1.3,2.641,2.915.423-2.109,2.056.5,2.9Z" transform="translate(-66.9 -55.99)" fill="#f2eed1"/>
    <path id="Контур_10858" data-name="Контур 10858" d="M965.615-419.068l-3.056,1.607.584-3.4-2.472-2.41,3.416-.5,1.528-3.1,1.528,3.1,3.416.5-2.472,2.41.584,3.4Z" transform="translate(-59.118 -3.059)" fill="#f2eed1" opacity="0.3"/>
    <path id="Контур_10859" data-name="Контур 10859" d="M858.1-303.315l-1.964,1.032.375-2.186-1.589-1.548,2.2-.319.982-1.989.982,1.989,2.2.319-1.589,1.548.375,2.186Z" transform="translate(-23.987 -42.44)" fill="#f2eed1"/>
    <g id="Сгруппировать_3682" data-name="Сгруппировать 3682" transform="translate(809.382 -419.477)">
      <path id="Контур_10860" data-name="Контур 10860" d="M835.918-382.833v.213l-.554.519v15.426a.436.436,0,0,0,.436.435.435.435,0,0,0,.435-.435v-16.158Z" transform="translate(-826.871 401.789)" fill="#f5c268"/>
      <path id="Контур_10861" data-name="Контур 10861" d="M829.472-359.586a4.371,4.371,0,0,0,4.371,4.371v-8.741A4.371,4.371,0,0,0,829.472-359.586Z" transform="translate(-824.914 395.518)" fill="#f5c268"/>
      <path id="Контур_10862" data-name="Контур 10862" d="M836.017-355.216a4.371,4.371,0,0,0,4.37-4.371,4.371,4.371,0,0,0-4.37-4.371Z" transform="translate(-827.088 395.518)" fill="#eea74e"/>
      <path id="Контур_10863" data-name="Контур 10863" d="M870.053-411.22a48.851,48.851,0,0,0-38.986,19.755,29.46,29.46,0,0,1,18.711-6.825c.387,0,.771.017,1.155.033a21.328,21.328,0,0,1,20.27,21.075c0,11.818-11.358,21.806-11.358,21.806s1.1,3.133,3.2,4.134a17.57,17.57,0,0,0,4.807,1.3s.5,3.1-.2,4.507a19.2,19.2,0,0,1-2.8,3.505,11.85,11.85,0,0,0,1.1,1.3,13.405,13.405,0,0,0,2.9,1.5s-.559,6.51-8.232,10.427a28.71,28.71,0,0,1-10.849,2.131c-11.462,0-21.509-6.8-27.132-17.007C829-322.517,847.82-307.25,870.053-307.25c27.453,0,49.708-23.274,49.708-51.985S897.506-411.22,870.053-411.22Z" transform="translate(-822.646 411.22)" fill="#eea74e"/>
      <path id="Контур_10864" data-name="Контур 10864" d="M859.89-407.685a40.4,40.4,0,0,0-5.955.443,49.389,49.389,0,0,0-18.383,11.78,24.1,24.1,0,0,1,7.035-1.053c.331,0,.658.015.986.029.064,0,.128.011.192.015a28.557,28.557,0,0,1,6.012-.644c.387,0,.771.017,1.155.033a21.327,21.327,0,0,1,20.27,21.075c0,11.818-11.358,21.806-11.358,21.806s1.1,3.133,3.2,4.134a17.571,17.571,0,0,0,4.807,1.3s.5,3.1-.2,4.507a19.2,19.2,0,0,1-2.8,3.505,11.849,11.849,0,0,0,1.1,1.3,13.405,13.405,0,0,0,2.9,1.5s-.559,6.51-8.232,10.427a28.71,28.71,0,0,1-10.849,2.131c-11.462,0-21.509-6.8-27.132-17.007.3,1,.638,1.975.994,2.944,7.444,12.941,20.892,21.585,36.251,21.585,23.428,0,42.421-20.106,42.421-44.908S883.319-407.685,859.89-407.685Z" transform="translate(-822.646 410.046)" fill="#f5c268"/>
      <path id="Контур_10865" data-name="Контур 10865" d="M874.243-411.22a48.851,48.851,0,0,0-38.986,19.755,29.46,29.46,0,0,1,18.711-6.825c.387,0,.771.017,1.155.033a21.328,21.328,0,0,1,20.27,21.075c0,.312-.012.621-.027.93a124.018,124.018,0,0,0,15.95-.907,120.09,120.09,0,0,0,26.866-6.383C909.838-400,893.3-411.22,874.243-411.22Z" transform="translate(-826.836 411.22)" fill="#ee6d58"/>
      <path id="Контур_10866" data-name="Контур 10866" d="M905.327-340.758a9.544,9.544,0,0,1-6.018-1.907,1.307,1.307,0,0,1-.128-1.844,1.308,1.308,0,0,1,1.836-.136,7.407,7.407,0,0,0,5.467,1.2,9.832,9.832,0,0,0,5.9-3.326,1.308,1.308,0,0,1,1.836-.217,1.307,1.307,0,0,1,.217,1.836,12.47,12.47,0,0,1-7.643,4.3A12.247,12.247,0,0,1,905.327-340.758Z" transform="translate(-847.966 389.973)" fill="#5b4559"/>
      <g id="Сгруппировать_3681" data-name="Сгруппировать 3681" transform="translate(27.897)">
        <path id="Контур_10867" data-name="Контур 10867" d="M928.939-361.94c.992-.173,1.975-.361,2.953-.556Q930.426-362.2,928.939-361.94Z" transform="translate(-885.856 395.033)" fill="#bf423c"/>
        <path id="Контур_10868" data-name="Контур 10868" d="M924.195-361.081c.787-.116,1.564-.248,2.343-.379C925.76-361.328,924.981-361.2,924.195-361.081Z" transform="translate(-884.28 394.689)" fill="#bf423c"/>
        <path id="Контур_10869" data-name="Контур 10869" d="M869.5-408.417a40.4,40.4,0,0,1,5.955-.443c18.315,0,33.919,12.288,39.857,29.5q-1.517.345-3.058.655a116.887,116.887,0,0,0,17.3-4.839c-8.343-16.46-24.885-27.677-43.939-27.677a47.6,47.6,0,0,0-16.121,2.8Z" transform="translate(-866.108 411.22)" fill="#bf423c"/>
        <path id="Контур_10870" data-name="Контур 10870" d="M864.422-405.661l.007.005c1.108-.5,2.234-.953,3.382-1.364Q866.088-406.4,864.422-405.661Z" transform="translate(-864.422 409.825)" fill="#bf423c"/>
        <path id="Контур_10871" data-name="Контур 10871" d="M913.616-359.744q-1.239.12-2.471.218Q912.376-359.622,913.616-359.744Z" transform="translate(-879.944 394.119)" fill="#bf423c"/>
        <path id="Контур_10872" data-name="Контур 10872" d="M917.93-360.216q-1.284.156-2.56.281C916.221-360.02,917.074-360.112,917.93-360.216Z" transform="translate(-881.348 394.276)" fill="#bf423c"/>
      </g>
      <path id="Контур_10873" data-name="Контур 10873" d="M902.477-304.366a20.646,20.646,0,0,1-11.142.647l.178.071a10.154,10.154,0,0,1-.678,2.5,21.481,21.481,0,0,0,4.8.528,24.161,24.161,0,0,0,7.671-1.271,1.307,1.307,0,0,0,.825-1.655A1.305,1.305,0,0,0,902.477-304.366Z" transform="translate(-845.299 375.744)" fill="#3e2f3c"/>
      <path id="Контур_10874" data-name="Контур 10874" d="M923.246-318.3a13.835,13.835,0,0,1-13.835,13.834A13.835,13.835,0,0,1,895.576-318.3a13.835,13.835,0,0,1,13.835-13.835A13.835,13.835,0,0,1,923.246-318.3Z" transform="translate(-846.875 384.945)" fill="#ee6d58"/>
      <circle id="Эллипс_741" data-name="Эллипс 741" cx="2.906" cy="2.906" r="2.906" transform="translate(61.316 10.682)" fill="#f2eed1"/>
      <circle id="Эллипс_742" data-name="Эллипс 742" cx="4.844" cy="4.844" r="4.844" transform="translate(65.014 21.704) rotate(-45)" fill="#f2eed1"/>
    </g>
  </g>
</svg>
